<?xml version="1.0" encoding="UTF-8"?>
<svg height="128px" viewBox="0 0 128 128" width="128px" xmlns="http://www.w3.org/2000/svg" xmlns:xlink="http://www.w3.org/1999/xlink">
    <linearGradient id="a" gradientTransform="matrix(0.196428 0 0 0.342105 1.59729 273.740051)" gradientUnits="userSpaceOnUse" x1="88.595886" x2="536.595886" y1="-449.394012" y2="-449.394012">
        <stop offset="0" stop-color="#77767b"/>
        <stop offset="0.0500001" stop-color="#c0bfbc"/>
        <stop offset="0.099807" stop-color="#9a9996"/>
        <stop offset="0.900001" stop-color="#9a9996"/>
        <stop offset="0.950001" stop-color="#c0bfbc"/>
        <stop offset="1" stop-color="#77767b"/>
    </linearGradient>
    <path d="m 27 16 h 72 c 4.417969 0 8 3.582031 8 8 v 88 c 0 4.417969 -3.582031 8 -8 8 h -72 c -4.417969 0 -8 -3.582031 -8 -8 v -88 c 0 -4.417969 3.582031 -8 8 -8 z m 0 0" fill="url(#a)"/>
    <path d="m 27 8 h 72 c 4.417969 0 8 3.582031 8 8 v 92 c 0 4.417969 -3.582031 8 -8 8 h -72 c -4.417969 0 -8 -3.582031 -8 -8 v -92 c 0 -4.417969 3.582031 -8 8 -8 z m 0 0" fill="#ffffff"/>
    <g fill="#3d3846">
        <path d="m 82.5625 57.898438 h -39.125 c -1.035156 0 -2.03125 -0.414063 -2.765625 -1.148438 s -1.144531 -1.726562 -1.144531 -2.765625 s 0.410156 -2.03125 1.144531 -2.765625 s 1.730469 -1.148438 2.765625 -1.148438 h 39.125 c 1.035156 0 2.03125 0.414063 2.765625 1.148438 s 1.144531 1.726562 1.144531 2.765625 s -0.410156 2.03125 -1.144531 2.765625 s -1.730469 1.148438 -2.765625 1.148438 z m 0 0"/>
        <path d="m 82.5625 30.511719 h -11.738281 c -1.035157 0 -2.03125 -0.414063 -2.765625 -1.148438 s -1.144532 -1.726562 -1.144532 -2.765625 c 0 -1.039062 0.410157 -2.03125 1.144532 -2.765625 s 1.730468 -1.148437 2.765625 -1.148437 h 11.738281 c 1.035156 0 2.03125 0.414062 2.765625 1.148437 s 1.144531 1.726563 1.144531 2.765625 c 0 1.039063 -0.410156 2.03125 -1.144531 2.765625 s -1.730469 1.148438 -2.765625 1.148438 z m 0 0"/>
        <path d="m 82.5625 42.246094 h -11.738281 c -1.035157 0 -2.03125 -0.410156 -2.765625 -1.144532 c -0.734375 -0.734374 -1.144532 -1.730468 -1.144532 -2.765624 c 0 -1.039063 0.410157 -2.035157 1.144532 -2.769532 c 0.734375 -0.730468 1.730468 -1.144531 2.765625 -1.144531 h 11.738281 c 1.035156 0 2.03125 0.414063 2.765625 1.144531 c 0.734375 0.734375 1.144531 1.730469 1.144531 2.769532 c 0 1.035156 -0.410156 2.03125 -1.144531 2.765624 c -0.734375 0.734376 -1.730469 1.144532 -2.765625 1.144532 z m 0 0"/>
    </g>
    <path d="m 55.175781 42.246094 h -11.738281 c -1.035156 0 -2.03125 -0.410156 -2.765625 -1.144532 c -0.734375 -0.734374 -1.144531 -1.730468 -1.144531 -2.765624 v -11.738282 c 0 -1.039062 0.410156 -2.03125 1.144531 -2.765625 s 1.730469 -1.148437 2.765625 -1.148437 h 11.738281 c 1.035157 0 2.03125 0.414062 2.765625 1.148437 s 1.144532 1.726563 1.144532 2.765625 v 11.738282 c 0 1.035156 -0.410157 2.03125 -1.144532 2.765624 c -0.734375 0.734376 -1.730468 1.144532 -2.765625 1.144532 z m -7.824219 -7.824219 h 3.910157 v -3.910156 h -3.910157 z m 0 0" fill="#f5c211"/>
    <path d="m 45.125 28.285156 h 8.363281 v 8.359375 h -8.363281 z m 0 0" fill="#ffffff"/>
    <path d="m 63.328125 81.726562 c -0.179687 -0.769531 -0.308594 -1.316406 -0.390625 -1.640624 c -0.085938 -0.332032 -0.242188 -0.816407 -0.46875 -1.453126 c -0.230469 -0.644531 -0.476562 -1.109374 -0.734375 -1.390624 c -0.25 -0.28125 -0.621094 -0.625 -1.109375 -1.03125 c -0.480469 -0.414063 -1.03125 -0.71875 -1.65625 -0.90625 s -1.398438 -0.347657 -2.3125 -0.484376 c -0.90625 -0.144531 -1.945312 -0.21875 -3.109375 -0.21875 c -1.085937 0 -1.8125 0.136719 -2.1875 0.40625 c -0.367187 0.273438 -0.546875 0.804688 -0.546875 1.59375 v 9.90625 c 2.132812 0 3.65625 -0.445312 4.5625 -1.34375 c 0.914062 -0.894531 1.570312 -2.566406 1.96875 -5.015624 h 1.0625 v 14.421874 h -1.0625 c -0.28125 -2.476562 -0.890625 -4.1875 -1.828125 -5.125 s -2.507813 -1.429687 -4.703125 -1.484374 v 9.9375 c 0 1.167968 0.289062 1.945312 0.875 2.328124 c 0.582031 0.386719 1.859375 0.621094 3.828125 0.703126 v 1.0625 h -15.359375 v -1.0625 c 1.59375 -0.175782 2.613281 -0.445313 3.0625 -0.8125 c 0.457031 -0.375 0.6875 -1.113282 0.6875 -2.21875 v -20.65625 c 0 -1.101563 -0.257812 -1.863282 -0.765625 -2.28125 c -0.511719 -0.414063 -1.507813 -0.664063 -2.984375 -0.75 v -1.0625 h 24.1875 v 8.578124 z m -24.03125 -18.132812" fill="#3d3846"/>
    <path d="m 74.839844 72.632812 c -1.011719 0 -1.835938 0.824219 -1.835938 1.835938 v 15.757812 l -4.207031 -4.210937 c -0.34375 -0.34375 -0.8125 -0.535156 -1.296875 -0.535156 c -0.488281 0 -0.953125 0.191406 -1.300781 0.535156 c -0.714844 0.71875 -0.714844 1.878906 0 2.597656 l 7.34375 7.339844 c 0.714843 0.714844 1.875 0.714844 2.59375 0 l 7.339843 -7.339844 c 0.71875 -0.71875 0.71875 -1.878906 0 -2.597656 c -0.714843 -0.714844 -1.878906 -0.714844 -2.59375 0 l -4.207031 4.210937 v -15.757812 c 0 -1.011719 -0.824219 -1.835938 -1.835937 -1.835938 z m -11.011719 25.691407 v 3.671875 h 22.019531 v -3.671875 z m 0 0" fill="#f5c211"/>
</svg>
