<?xml version="1.0" encoding="UTF-8"?>
<svg height="128px" viewBox="0 0 128 128" width="128px" xmlns="http://www.w3.org/2000/svg" xmlns:xlink="http://www.w3.org/1999/xlink">
    <linearGradient id="a" gradientTransform="matrix(-1 0 0 -1 135.999463 -172.000541)" gradientUnits="userSpaceOnUse" x1="27.99999" x2="115.999992" y1="-274" y2="-274">
        <stop offset="0" stop-color="#c0bfbc"/>
        <stop offset="0.0454545" stop-color="#f6f5f4"/>
        <stop offset="0.0909091" stop-color="#deddda"/>
        <stop offset="0.909091" stop-color="#deddda"/>
        <stop offset="0.954545" stop-color="#f6f5f4"/>
        <stop offset="1" stop-color="#c0bfbc"/>
    </linearGradient>
    <linearGradient id="b" gradientTransform="matrix(-0.965926 -0.258819 0.258819 -0.965926 131.988106 311.992625)" gradientUnits="userSpaceOnUse" x1="167.194427" x2="171.058136" y1="191.243362" y2="190.208084">
        <stop offset="0" stop-opacity="0.155304"/>
        <stop offset="1" stop-opacity="0"/>
    </linearGradient>
    <linearGradient id="c" gradientUnits="userSpaceOnUse" x1="84.643839" x2="95.270159" y1="35.268732" y2="24.642404">
        <stop offset="0" stop-color="#ffffff"/>
        <stop offset="0.342347" stop-color="#ececec"/>
        <stop offset="0.7" stop-color="#e8e8e8"/>
        <stop offset="1" stop-color="#ffffff"/>
    </linearGradient>
    <path d="m 85.3125 0.453125 l -69.546875 18.636719 c -4.265625 1.140625 -6.796875 5.527344 -5.65625 9.796875 l 22.777344 85 c 1.144531 4.269531 5.53125 6.800781 9.796875 5.660156 l 69.546875 -18.636719 c 4.269531 -1.144531 6.800781 -5.53125 5.65625 -9.796875 l -22.773438 -85.003906 c -1.144531 -4.265625 -5.53125 -6.800781 -9.800781 -5.65625 z m 0 0" fill="#f5c211"/>
    <path d="m 28 61 h 72 c 4.417969 0 8 3.582031 8 8 v 43 c 0 4.417969 -3.582031 8 -8 8 h -72 c -4.417969 0 -8 -3.582031 -8 -8 v -43 c 0 -4.417969 3.582031 -8 8 -8 z m 0 0" fill="#deddda"/>
    <path d="m 100 120 h -72 c -4.417969 0 -8 -3.582031 -8 -8 v -24 c 0 -4.417969 3.582031 -8 8 -8 h 72 c 4.417969 0 8 3.582031 8 8 v 24 c 0 4.417969 -3.582031 8 -8 8 z m 0 0" fill="url(#a)"/>
    <path d="m 28 15.8125 v 79.835938 l -17.890625 -66.761719 c -1.144531 -4.28125 1.375 -8.648438 5.65625 -9.796875 z m 0 0" fill="#f5c211"/>
    <path d="m 27.988281 104.179688 v -79.835938 l -17.890625 66.761719 c -1.144531 4.28125 1.378906 8.648437 5.65625 9.796875 z m 0 0" fill="url(#b)"/>
    <path d="m 28 8 h 72 c 4.417969 0 8 3.582031 8 8 v 88 c 0 4.417969 -3.582031 8 -8 8 h -72 c -4.417969 0 -8 -3.582031 -8 -8 v -88 c 0 -4.417969 3.582031 -8 8 -8 z m 0 0" fill="#f6f5f4"/>
    <g fill="#9a9996" fill-opacity="0.271654">
        <path d="m 108 106.652344 c -0.082031 4.09375 -3.382812 7.347656 -7.492188 7.347656 h -0.5 v 1 h 0.5 c 3.222657 0 6.019532 -1.789062 7.460938 -4.429688 c 0.015625 -0.1875 0.03125 -0.378906 0.03125 -0.570312 z m -42 7.347656 l 34 1 v -1 z m 0 0"/>
        <path d="m 108 109.652344 c -0.082031 4.09375 -3.382812 7.347656 -7.492188 7.347656 h -0.5 v 1 h 0.5 c 3.222657 0 6.019532 -1.789062 7.460938 -4.429688 c 0.015625 -0.1875 0.03125 -0.378906 0.03125 -0.570312 z m -42 7.347656 l 34 1 v -1 z m 0 0"/>
        <path d="m 20 109.652344 c 0.082031 4.09375 3.378906 7.347656 7.492188 7.347656 h 0.5 v 1 h -0.5 c -3.222657 0 -6.023438 -1.789062 -7.464844 -4.429688 c -0.011719 -0.1875 -0.027344 -0.378906 -0.027344 -0.570312 z m 42 7.347656 l -34 1 v -1 z m 0 0"/>
        <path d="m 20 106.652344 c 0.082031 4.09375 3.378906 7.347656 7.492188 7.347656 h 0.5 v 1 h -0.5 c -3.222657 0 -6.023438 -1.789062 -7.464844 -4.429688 c -0.011719 -0.1875 -0.027344 -0.378906 -0.027344 -0.570312 z m 78 7.347656 l -70 1 v -1 z m 0 0"/>
    </g>
    <path d="m 63.640625 114.417969 l -14.078125 5.582031 c -13.003906 5.855469 -14.675781 -5.265625 -14.675781 -5.582031 z m 0 0" fill-opacity="0.182575"/>
    <path d="m 63.640625 114.417969 l -19.125 5.125 c -4.101563 1.101562 -8.273437 -1.171875 -9.628906 -5.125 z m 0 0" fill="#f5c211"/>
    <path d="m 80 8 l 26 26 c 2.039062 3.136719 2 6 2 6 v -24 c 0 -4.433594 -3.570312 -8 -8 -8 z m 0 0" fill="#ff7800"/>
    <path d="m 105 35.277344 l -25 -25 v 20 c 0 4.429687 3.566406 8 8 8 h 15.796875 c 2.203125 0 4.5625 2.507812 4.203125 4 c -0.03125 -2.640625 -1.113281 -5.160156 -3 -7 z m 0 0" fill-opacity="0.211424"/>
    <path d="m 105 33 l -25 -25 v 20 c 0 4.429688 3.566406 8 8 8 h 15.796875 c 2.203125 0 4.5625 2.507812 4.203125 4 c -0.03125 -2.640625 -1.113281 -5.15625 -3 -7 z m 0 0" fill="url(#c)"/>
    <path d="m 80.49332 203.050711 c 0 -4.418551 -3.581194 -8.002216 -7.999162 -8.002216 s -7.999161 3.583665 -7.999161 8.002216 v 40.001318" fill="none" stroke="#1c71d8" stroke-linecap="round" stroke-linejoin="round" stroke-width="5.0497" transform="matrix(0.784262 0 0 0.800071 13.419033 -124.458953)"/>
    <path d="m 45.175782 70 h 37.648437" fill="none" stroke="#1c71d8" stroke-linecap="round" stroke-linejoin="round" stroke-width="3.99999"/>
    <path d="m 51.453125 57.199219 l 12.546875 12.800781 l 12.546875 -12.800781" fill="none" stroke="#1c71d8" stroke-linecap="round" stroke-linejoin="round" stroke-width="3.99999"/>
    <path d="m 80.493329 223.050253 c 0 -4.418552 -3.581193 -8.002217 -7.999161 -8.002217 s -7.999162 3.583665 -7.999162 8.002217 v 19.998217" fill="none" stroke="#1c71d8" stroke-dasharray="5.0497 5.0497" stroke-dashoffset="8.079519" stroke-linejoin="bevel" stroke-width="5.0497" transform="matrix(-0.784262 0 0 -0.800071 114.580975 264.456105)"/>
</svg>
