<?xml version="1.0" encoding="UTF-8" standalone="no"?>
<svg
   version="1.1"
   id="svg2"
   viewBox="0 0 378.37247 106.56249"
   height="30.074303mm"
   width="106.78512mm"
   sodipodi:docname="AtkynsonMono NF.svg"
   xmlns:inkscape="http://www.inkscape.org/namespaces/inkscape"
   xmlns:sodipodi="http://sodipodi.sourceforge.net/DTD/sodipodi-0.dtd"
   xmlns="http://www.w3.org/2000/svg"
   xmlns:svg="http://www.w3.org/2000/svg"
   xmlns:rdf="http://www.w3.org/1999/02/22-rdf-syntax-ns#"
   xmlns:cc="http://creativecommons.org/ns#"
   xmlns:dc="http://purl.org/dc/elements/1.1/">
  <sodipodi:namedview
     id="namedview12"
     pagecolor="#ffffff"
     bordercolor="#666666"
     borderopacity="1.0"
     inkscape:showpageshadow="2"
     inkscape:pageopacity="0.0"
     inkscape:pagecheckerboard="0"
     inkscape:deskcolor="#d1d1d1"
     inkscape:document-units="mm" />
  <defs
     id="defs4" />
  <metadata
     id="metadata7">
    <rdf:RDF>
      <cc:Work
         rdf:about="">
        <dc:format>image/svg+xml</dc:format>
        <dc:type
           rdf:resource="http://purl.org/dc/dcmitype/StillImage" />
        <dc:title />
      </cc:Work>
    </rdf:RDF>
  </metadata>
  <g
     id="layer1"
     transform="translate(-63.792143,-81.463632)">
    <g
       aria-label="AtkynsonMono Nerd Font"
       id="text4136"
       style="font-size:27.5px;font-family:'AtkynsonMono NF';letter-spacing:0px;word-spacing:0px;fill:#ffffff">
      <path
         d="M 63.792143,100.93363 H 66.047143 L 67.504643,96.726132 H 75.534643 L 76.964643,100.93363 H 79.302143 L 72.839643,82.563632 H 70.282143 Z M 68.109643,94.718632 71.464643,85.066132 H 71.574643 L 74.902143,94.718632 Z"
         id="path14" />
      <path
         d="M 89.834643,100.93363 H 93.189643 V 98.981132 H 90.357143 C 89.064643,98.981132 88.762143,98.706132 88.762143,97.193632 V 89.136132 H 94.564643 V 87.293632 H 88.762143 V 83.883632 H 86.424643 V 87.293632 H 83.482143 V 89.136132 H 86.424643 V 97.523632 C 86.424643,100.35613 87.249643,100.93363 89.834643,100.93363 Z"
         id="path16" />
      <path
         d="M 101.16464,100.93363 H 103.50214 V 96.506132 L 105.59214,94.471132 110.78964,100.93363 H 113.67714 L 107.18714,92.903632 112.96214,87.293632 H 110.07464 L 103.50214,93.756132 V 81.463632 H 101.16464 Z"
         id="path18" />
      <path
         d="M 117.49964,105.38863 H 119.75464 C 122.44964,105.38863 123.05464,104.59113 123.98964,102.39113 L 130.72714,87.293632 H 128.19714 L 123.79714,97.963632 H 123.68714 L 119.17714,87.293632 H 116.64714 L 122.55964,100.68613 121.87214,102.17113 C 121.34964,103.27113 120.93714,103.51863 119.58964,103.51863 H 117.49964 Z"
         id="path20" />
      <path
         d="M 135.20964,100.93363 H 137.54714 V 93.591132 C 137.54714,90.593632 139.11464,88.916132 141.47964,88.916132 143.76214,88.916132 144.64214,90.401132 144.64214,92.601132 V 100.93363 H 147.00714 V 91.996132 C 147.00714,89.053632 145.54964,86.991132 142.11214,86.991132 139.69214,86.991132 138.12464,88.366132 137.51964,89.356132 L 137.13464,87.293632 H 135.20964 Z"
         id="path22" />
      <path
         d="M 158.63964,101.26363 C 161.93964,101.26363 164.44214,99.751132 164.44214,97.056132 164.44214,94.691132 162.90214,93.728632 159.87714,93.123632 L 157.56714,92.656132 C 156.05464,92.353632 155.11964,91.803632 155.11964,90.786132 155.11964,89.521132 156.46714,88.833632 158.39214,88.833632 160.09714,88.833632 161.44464,89.438632 161.91214,90.621132 L 163.97464,89.851132 C 163.14964,87.926132 161.03214,86.991132 158.44714,86.991132 155.33964,86.991132 152.89214,88.448632 152.89214,90.923632 152.89214,93.041132 154.45964,94.058632 156.93464,94.526132 L 159.18964,94.993632 C 161.05964,95.378632 162.21464,95.873632 162.21464,97.221132 162.21464,98.541132 160.86714,99.421132 158.66714,99.421132 156.54964,99.421132 155.00964,98.541132 154.56964,97.056132 L 152.45214,97.826132 C 153.33214,100.16363 155.91714,101.26363 158.63964,101.26363 Z"
         id="path24" />
      <path
         d="M 175.82714,101.26363 C 179.20964,101.26363 182.75714,99.063632 182.75714,94.113632 182.75714,89.136132 179.20964,86.991132 175.82714,86.991132 172.44464,86.991132 168.89714,89.136132 168.89714,94.113632 168.89714,99.063632 172.44464,101.26363 175.82714,101.26363 Z M 175.82714,99.338632 C 173.43464,99.338632 171.28964,97.688632 171.28964,94.113632 171.28964,90.538632 173.46214,88.916132 175.82714,88.916132 178.19214,88.916132 180.36464,90.538632 180.36464,94.113632 180.36464,97.688632 178.21964,99.338632 175.82714,99.338632 Z"
         id="path26" />
      <path
         d="M 187.34964,100.93363 H 189.68714 V 93.591132 C 189.68714,90.593632 191.25464,88.916132 193.61964,88.916132 195.90214,88.916132 196.78214,90.401132 196.78214,92.601132 V 100.93363 H 199.14714 V 91.996132 C 199.14714,89.053632 197.68964,86.991132 194.25214,86.991132 191.83214,86.991132 190.26464,88.366132 189.65964,89.356132 L 189.27464,87.293632 H 187.34964 Z"
         id="path28" />
      <path
         d="M 203.16214,100.93363 H 205.22464 V 85.038632 H 205.33464 L 209.51464,100.93363 H 211.68714 L 215.81214,85.038632 H 215.92214 V 100.93363 H 218.01214 V 82.563632 H 214.57464 L 210.69714,97.798632 H 210.58714 L 206.65464,82.563632 H 203.16214 Z"
         id="path30" />
      <path
         d="M 227.96714,101.26363 C 231.34964,101.26363 234.89714,99.063632 234.89714,94.113632 234.89714,89.136132 231.34964,86.991132 227.96714,86.991132 224.58464,86.991132 221.03714,89.136132 221.03714,94.113632 221.03714,99.063632 224.58464,101.26363 227.96714,101.26363 Z M 227.96714,99.338632 C 225.57464,99.338632 223.42964,97.688632 223.42964,94.113632 223.42964,90.538632 225.60214,88.916132 227.96714,88.916132 230.33214,88.916132 232.50464,90.538632 232.50464,94.113632 232.50464,97.688632 230.35964,99.338632 227.96714,99.338632 Z"
         id="path32" />
      <path
         d="M 239.48963,100.93363 H 241.82713 V 93.591132 C 241.82713,90.593632 243.39463,88.916132 245.75963,88.916132 248.04213,88.916132 248.92213,90.401132 248.92213,92.601132 V 100.93363 H 251.28713 V 91.996132 C 251.28713,89.053632 249.82963,86.991132 246.39213,86.991132 243.97213,86.991132 242.40463,88.366132 241.79963,89.356132 L 241.41463,87.293632 H 239.48963 Z"
         id="path34" />
      <path
         d="M 262.72714,101.26363 C 266.10964,101.26363 269.65714,99.063632 269.65714,94.113632 269.65714,89.136132 266.10964,86.991132 262.72714,86.991132 259.34464,86.991132 255.79714,89.136132 255.79714,94.113632 255.79714,99.063632 259.34464,101.26363 262.72714,101.26363 Z M 262.72714,99.338632 C 260.33464,99.338632 258.18964,97.688632 258.18964,94.113632 258.18964,90.538632 260.36214,88.916132 262.72714,88.916132 265.09214,88.916132 267.26464,90.538632 267.26464,94.113632 267.26464,97.688632 265.11964,99.338632 262.72714,99.338632 Z"
         id="path36" />
      <path
         d="M 290.85963,100.93363 H 293.08713 V 85.451132 H 293.19713 L 300.92463,100.93363 H 304.11463 V 82.563632 H 301.88713 V 98.046132 H 301.77713 L 294.04963,82.563632 H 290.85963 Z"
         id="path38" />
      <path
         d="M 315.14214,101.26363 C 317.94714,101.26363 319.67964,100.08113 320.72464,98.541132 L 318.66214,97.798632 C 318.00214,98.678632 316.98464,99.338632 315.25214,99.338632 313.18964,99.338632 310.74214,98.211132 310.60464,94.526132 H 321.49464 C 321.79714,90.566132 319.37714,86.991132 315.03214,86.991132 311.15464,86.991132 308.26714,89.768632 308.26714,94.141132 308.26714,98.266132 310.85214,101.26363 315.14214,101.26363 Z M 319.21214,92.903632 H 310.63214 C 311.04464,89.933632 312.96964,88.861132 315.08714,88.861132 317.78214,88.861132 319.15714,90.923632 319.21214,92.903632 Z"
         id="path40" />
      <path
         d="M 327.62713,100.93363 H 329.96463 V 95.241132 C 329.96463,91.253632 332.38463,89.301132 335.65713,89.301132 336.53713,89.301132 337.49963,89.466132 338.32463,89.713632 V 87.293632 C 337.74713,87.156132 336.86713,87.046132 336.15213,87.046132 333.59463,87.046132 331.22963,88.146132 329.93713,90.456132 L 329.41463,87.293632 H 327.62713 Z"
         id="path42" />
      <path
         d="M 348.71963,101.26363 C 350.86463,101.26363 352.51463,100.24613 353.53213,98.788632 L 354.13713,100.93363 H 356.33713 C 355.86963,98.541132 355.86963,96.698632 355.86963,95.818632 V 81.463632 H 353.53213 V 89.576132 C 352.59713,88.036132 350.86463,86.991132 348.71963,86.991132 344.97963,86.991132 342.39463,89.603632 342.39463,94.086132 342.39463,98.568632 344.97963,101.26363 348.71963,101.26363 Z M 349.24213,99.338632 C 346.60213,99.338632 344.78713,97.441132 344.78713,94.086132 344.78713,90.758632 346.60213,88.916132 349.24213,88.916132 351.79963,88.916132 353.58713,90.813632 353.58713,94.113632 353.58713,97.441132 351.79963,99.338632 349.24213,99.338632 Z"
         id="path44" />
      <path
         d="M 379.13464,100.93363 H 381.55464 V 92.821132 H 390.57464 V 90.703632 H 381.55464 V 84.681132 H 390.68464 V 82.563632 H 379.13464 Z"
         id="path46" />
      <path
         d="M 401.76711,101.26363 C 405.14961,101.26363 408.69711,99.063632 408.69711,94.113632 408.69711,89.136132 405.14961,86.991132 401.76711,86.991132 398.38461,86.991132 394.83711,89.136132 394.83711,94.113632 394.83711,99.063632 398.38461,101.26363 401.76711,101.26363 Z M 401.76711,99.338632 C 399.37461,99.338632 397.22961,97.688632 397.22961,94.113632 397.22961,90.538632 399.40211,88.916132 401.76711,88.916132 404.13211,88.916132 406.30461,90.538632 406.30461,94.113632 406.30461,97.688632 404.15961,99.338632 401.76711,99.338632 Z"
         id="path48" />
      <path
         d="M 413.28962,100.93363 H 415.62712 V 93.591132 C 415.62712,90.593632 417.19462,88.916132 419.55962,88.916132 421.84212,88.916132 422.72212,90.401132 422.72212,92.601132 V 100.93363 H 425.08712 V 91.996132 C 425.08712,89.053632 423.62962,86.991132 420.19212,86.991132 417.77212,86.991132 416.20462,88.366132 415.59962,89.356132 L 415.21462,87.293632 H 413.28962 Z"
         id="path50" />
      <path
         d="M 437.43462,100.93363 H 440.78962 V 98.981132 H 437.95712 C 436.66462,98.981132 436.36212,98.706132 436.36212,97.193632 V 89.136132 H 442.16462 V 87.293632 H 436.36212 V 83.883632 H 434.02462 V 87.293632 H 431.08212 V 89.136132 H 434.02462 V 97.523632 C 434.02462,100.35613 434.84962,100.93363 437.43462,100.93363 Z"
         id="path52" />
    </g>
    <g
       aria-label="abcdefghijklmnopqrstuvwxyzABCDEFGHIJKLMNOPQRSTUVWXYZ oO08 iIlL1 {} [] g9qCGQ ~-+=&gt;"
       id="text4140"
       style="font-size:17.5px;font-family:'AtkynsonMono NF';letter-spacing:0px;word-spacing:0px;fill:#ffffff">
      <path
         d="M 69.881903,141.14362 C 71.596903,141.14362 72.594403,140.47862 73.049403,139.62112 L 73.381903,140.93362 H 74.676903 C 74.501903,140.19862 74.361903,139.11362 74.361903,137.59112 V 135.45612 C 74.361903,133.19862 73.224403,132.06112 70.861903,132.06112 69.129403,132.06112 67.816903,132.83112 67.326903,134.14362 L 68.709403,134.54612 C 68.901903,133.75862 69.636903,133.16362 70.826903,133.16362 72.296903,133.16362 72.926903,133.96862 72.926903,135.31612 V 135.50862 C 68.866903,135.78862 66.801903,136.64612 66.801903,138.74612 66.801903,140.26862 68.079403,141.14362 69.881903,141.14362 Z M 70.231903,140.02362 C 69.024403,140.02362 68.324403,139.46362 68.324403,138.64112 68.324403,137.32862 69.846903,136.75112 72.926903,136.54112 V 137.46862 C 72.926903,139.35862 71.754403,140.02362 70.231903,140.02362 Z"
         id="path55" />
      <path
         d="M 82.586903,141.14362 C 84.966903,141.14362 86.611903,139.44612 86.611903,136.57612 86.611903,133.72362 84.966903,132.06112 82.586903,132.06112 81.274403,132.06112 80.119403,132.70862 79.524403,133.72362 V 128.54362 H 78.036903 V 140.93362 H 79.261903 L 79.506903,139.53362 C 80.084403,140.46112 81.221903,141.14362 82.586903,141.14362 Z M 82.254403,139.91862 C 80.626903,139.91862 79.489403,138.71112 79.489403,136.59362 79.489403,134.47612 80.626903,133.28612 82.254403,133.28612 83.934403,133.28612 85.089403,134.45862 85.089403,136.57612 85.089403,138.71112 83.934403,139.91862 82.254403,139.91862 Z"
         id="path57" />
      <path
         d="M 93.524402,141.14362 C 95.361902,141.14362 96.691902,140.23362 97.269402,139.20112 L 95.974402,138.72862 C 95.571902,139.46362 94.661902,139.91862 93.576902,139.91862 92.089402,139.91862 90.671902,138.92112 90.671902,136.61112 90.671902,134.28362 92.106902,133.28612 93.611902,133.28612 94.679402,133.28612 95.519402,133.74112 95.921902,134.54612 L 97.216902,134.07362 C 96.534402,132.81362 95.256902,132.06112 93.594402,132.06112 90.846902,132.06112 89.149402,134.05612 89.149402,136.62862 89.149402,139.25362 90.846902,141.14362 93.524402,141.14362 Z"
         id="path59" />
      <path
         d="M 103.5519,141.14362 C 104.9169,141.14362 105.9669,140.49612 106.6144,139.56862 L 106.9994,140.93362 H 108.3994 C 108.1019,139.41112 108.1019,138.23862 108.1019,137.67862 V 128.54362 H 106.6144 V 133.70612 C 106.0194,132.72612 104.9169,132.06112 103.5519,132.06112 101.1719,132.06112 99.526903,133.72362 99.526903,136.57612 99.526903,139.42862 101.1719,141.14362 103.5519,141.14362 Z M 103.8844,139.91862 C 102.2044,139.91862 101.0494,138.71112 101.0494,136.57612 101.0494,134.45862 102.2044,133.28612 103.8844,133.28612 105.5119,133.28612 106.6494,134.49362 106.6494,136.59362 106.6494,138.71112 105.5119,139.91862 103.8844,139.91862 Z"
         id="path61" />
      <path
         d="M 115.3644,141.14362 C 117.1494,141.14362 118.2519,140.39112 118.9169,139.41112 L 117.6044,138.93862 C 117.1844,139.49862 116.5369,139.91862 115.4344,139.91862 114.1219,139.91862 112.5644,139.20112 112.4769,136.85612 H 119.4069 C 119.5994,134.33612 118.0594,132.06112 115.2944,132.06112 112.8269,132.06112 110.9894,133.82862 110.9894,136.61112 110.9894,139.23612 112.6344,141.14362 115.3644,141.14362 Z M 117.9544,135.82362 H 112.4944 C 112.7569,133.93362 113.9819,133.25112 115.3294,133.25112 117.0444,133.25112 117.9194,134.56362 117.9544,135.82362 Z"
         id="path63" />
      <path
         d="M 125.1469,140.93362 H 126.6519 V 133.42612 H 129.0494 V 132.25362 H 126.6519 V 130.71362 C 126.6519,129.80362 126.8269,129.62862 127.6319,129.62862 H 130.5719 V 128.38612 H 127.5094 C 125.7244,128.38612 125.1469,128.84112 125.1469,130.64362 V 132.25362 H 122.5044 V 133.42612 H 125.1469 Z"
         id="path65" />
      <path
         d="M 137.2394,144.27612 C 139.6544,144.27612 141.2819,143.06862 141.2819,140.77612 V 132.25362 H 140.0744 L 139.7944,133.70612 C 139.1994,132.72612 138.0969,132.06112 136.7144,132.06112 134.5269,132.06112 132.8119,133.61862 132.8119,136.45362 132.8119,139.18362 134.5269,140.77612 136.7494,140.77612 138.0969,140.77612 139.1469,140.16362 139.7944,139.23612 V 140.88112 C 139.7944,142.43862 138.6744,143.05112 137.2744,143.05112 136.0144,143.05112 135.1569,142.59612 134.9119,141.82612 L 133.5819,142.29862 C 134.0719,143.73362 135.6994,144.27612 137.2394,144.27612 Z M 137.1169,139.55112 C 135.4894,139.55112 134.3344,138.44862 134.3344,136.41862 134.3344,134.40612 135.4894,133.28612 137.1169,133.28612 138.7269,133.28612 139.8294,134.45862 139.8294,136.45362 139.8294,138.43112 138.7444,139.55112 137.1169,139.55112 Z"
         id="path67" />
      <path
         d="M 144.6419,140.93362 H 146.1469 V 136.26112 C 146.1469,134.35362 147.1269,133.28612 148.6319,133.28612 150.1019,133.28612 150.6619,134.23112 150.6619,135.63112 V 140.93362 H 152.1494 V 135.24612 C 152.1494,133.35612 151.2219,132.06112 149.0519,132.06112 147.5469,132.06112 146.5494,132.88362 146.1469,133.53112 V 128.54362 H 144.6419 Z"
         id="path69" />
      <path
         d="M 155.8244,140.93362 H 163.4544 V 139.76112 H 160.3919 V 132.25362 H 156.2794 V 133.42612 H 158.8869 V 139.76112 H 155.8244 Z M 159.4469,130.55612 C 160.0419,130.55612 160.5144,130.08362 160.5144,129.48862 160.5144,128.91112 160.0419,128.42112 159.4469,128.42112 158.8519,128.42112 158.3794,128.91112 158.3794,129.48862 158.3794,130.08362 158.8519,130.55612 159.4469,130.55612 Z"
         id="path71" />
      <path
         d="M 166.5519,143.76862 H 169.1419 C 171.4869,143.76862 171.9769,143.12112 171.9769,141.09112 V 132.25362 H 167.8644 V 133.42612 H 170.4894 V 141.02112 C 170.4894,142.28112 170.3144,142.52612 168.9844,142.52612 H 166.5519 Z M 171.0494,130.55612 C 171.6444,130.55612 172.1169,130.08362 172.1169,129.48862 172.1169,128.91112 171.6444,128.42112 171.0494,128.42112 170.4544,128.42112 169.9819,128.91112 169.9819,129.48862 169.9819,130.08362 170.4544,130.55612 171.0494,130.55612 Z"
         id="path73" />
      <path
         d="M 178.27689,140.93362 H 179.76439 V 138.11612 L 181.09439,136.82112 184.40189,140.93362 H 186.23939 L 182.10939,135.82362 185.78439,132.25362 H 183.94689 L 179.76439,136.36612 V 128.54362 H 178.27689 Z"
         id="path75" />
      <path
         d="M 193.0819,140.93362 H 196.5994 V 139.69112 H 193.4319 C 192.6094,139.69112 192.4869,139.49862 192.4869,138.74612 V 128.54362 H 188.9694 V 129.71612 H 190.9819 V 139.02612 C 190.9819,140.51362 191.4719,140.93362 193.0819,140.93362 Z"
         id="path77" />
      <path
         d="M 199.2419,140.93362 H 200.5719 V 135.19362 C 200.5719,133.93362 201.1494,133.28612 201.9369,133.28612 202.7244,133.28612 203.0219,133.86362 203.0219,134.80862 V 140.93362 H 204.3519 V 135.17612 C 204.3519,133.91612 204.9119,133.28612 205.6994,133.28612 206.4869,133.28612 206.8019,133.86362 206.8019,134.82612 V 140.93362 H 208.1319 V 134.37112 C 208.1319,133.00612 207.5194,132.06112 206.1019,132.06112 205.1219,132.06112 204.4569,132.60362 204.1594,133.18112 203.8794,132.48112 203.3019,132.06112 202.3569,132.06112 201.4294,132.06112 200.7994,132.58612 200.4844,133.16362 L 200.3094,132.25362 H 199.2419 Z"
         id="path79" />
      <path
         d="M 211.0019,140.93362 H 212.4894 V 136.26112 C 212.4894,134.35362 213.4869,133.28612 214.9919,133.28612 216.4444,133.28612 217.0044,134.23112 217.0044,135.63112 V 140.93362 H 218.5094 V 135.24612 C 218.5094,133.37362 217.5819,132.06112 215.3944,132.06112 213.8544,132.06112 212.8569,132.93612 212.4719,133.56612 L 212.2269,132.25362 H 211.0019 Z"
         id="path81" />
      <path
         d="M 225.7894,141.14362 C 227.9419,141.14362 230.1994,139.74362 230.1994,136.59362 230.1994,133.42612 227.9419,132.06112 225.7894,132.06112 223.6369,132.06112 221.3794,133.42612 221.3794,136.59362 221.3794,139.74362 223.6369,141.14362 225.7894,141.14362 Z M 225.7894,139.91862 C 224.2669,139.91862 222.9019,138.86862 222.9019,136.59362 222.9019,134.31862 224.2844,133.28612 225.7894,133.28612 227.2944,133.28612 228.6769,134.31862 228.6769,136.59362 228.6769,138.86862 227.3119,139.91862 225.7894,139.91862 Z"
         id="path83" />
      <path
         d="M 232.8769,143.76862 H 234.3644 V 139.53362 C 234.9244,140.44362 236.0619,141.14362 237.4269,141.14362 239.8069,141.14362 241.4519,139.46362 241.4519,136.61112 241.4519,133.75862 239.8069,132.06112 237.4269,132.06112 236.1144,132.06112 234.9769,132.70862 234.3819,133.68862 L 234.1019,132.25362 H 232.8769 Z M 237.0944,139.91862 C 235.4669,139.91862 234.3294,138.69362 234.3294,136.59362 234.3294,134.49362 235.4669,133.28612 237.0944,133.28612 238.7744,133.28612 239.9294,134.49362 239.9294,136.61112 239.9294,138.72862 238.7744,139.91862 237.0944,139.91862 Z"
         id="path85" />
      <path
         d="M 252.24939,143.97862 C 252.73939,143.97862 253.14189,143.85612 253.43939,143.71612 V 142.43862 C 253.15939,142.59612 252.89689,142.66612 252.59939,142.66612 251.95189,142.66612 251.74189,142.22862 251.74189,141.40612 V 132.25362 H 250.51689 L 250.25439,133.70612 C 249.65939,132.72612 248.59189,132.06112 247.24439,132.06112 244.91689,132.06112 243.30689,133.75862 243.30689,136.61112 243.30689,139.46362 244.91689,141.14362 247.22689,141.14362 248.59189,141.14362 249.64189,140.47862 250.25439,139.51612 V 141.66862 C 250.25439,143.48862 251.12939,143.97862 252.24939,143.97862 Z M 247.59439,139.91862 C 245.96689,139.91862 244.82939,138.72862 244.82939,136.59362 244.82939,134.45862 245.96689,133.28612 247.59439,133.28612 249.18689,133.28612 250.28939,134.49362 250.28939,136.59362 250.28939,138.69362 249.20439,139.91862 247.59439,139.91862 Z"
         id="path87" />
      <path
         d="M 256.02939,140.93362 H 257.51689 V 137.31112 C 257.51689,134.77362 259.05689,133.53112 261.13939,133.53112 261.69939,133.53112 262.31189,133.63612 262.83689,133.79362 V 132.25362 C 262.46939,132.16612 261.90939,132.09612 261.45439,132.09612 259.82689,132.09612 258.32189,132.79612 257.49939,134.26612 L 257.16689,132.25362 H 256.02939 Z"
         id="path89" />
      <path
         d="M 270.15189,141.14362 C 272.25189,141.14362 273.84439,140.18112 273.84439,138.46612 273.84439,136.96112 272.86439,136.34862 270.93939,135.96362 L 269.46939,135.66612 C 268.50689,135.47362 267.91189,135.12362 267.91189,134.47612 267.91189,133.67112 268.76939,133.23362 269.99439,133.23362 271.07939,133.23362 271.93689,133.61862 272.23439,134.37112 L 273.54689,133.88112 C 273.02189,132.65612 271.67439,132.06112 270.02939,132.06112 268.05189,132.06112 266.49439,132.98862 266.49439,134.56362 266.49439,135.91112 267.49189,136.55862 269.06689,136.85612 L 270.50189,137.15362 C 271.69189,137.39862 272.42689,137.71362 272.42689,138.57112 272.42689,139.41112 271.56939,139.97112 270.16939,139.97112 268.82189,139.97112 267.84189,139.41112 267.56189,138.46612 L 266.21439,138.95612 C 266.77439,140.44362 268.41939,141.14362 270.15189,141.14362 Z"
         id="path91" />
      <path
         d="M 281.66689,140.93362 H 283.80189 V 139.69112 H 281.99939 C 281.17689,139.69112 280.98439,139.51612 280.98439,138.55362 V 133.42612 H 284.67689 V 132.25362 H 280.98439 V 130.08362 H 279.49689 V 132.25362 H 277.62439 V 133.42612 H 279.49689 V 138.76362 C 279.49689,140.56612 280.02189,140.93362 281.66689,140.93362 Z"
         id="path93" />
      <path
         d="M 291.51938,141.14362 C 293.04188,141.14362 293.88188,140.39112 294.31938,139.58612 L 294.56438,140.93362 H 295.77188 V 132.25362 H 294.28438 V 136.99612 C 294.28438,138.92112 293.35688,139.91862 291.90438,139.91862 290.34688,139.91862 289.96188,138.86862 289.96188,137.39862 V 132.25362 H 288.45688 V 137.81862 C 288.45688,139.83112 289.29688,141.14362 291.51938,141.14362 Z"
         id="path95" />
      <path
         d="M 302.4744,140.93362 H 303.9269 L 307.6894,132.25362 H 306.1319 L 303.2794,139.20112 H 303.2094 L 300.3044,132.25362 H 298.7294 Z"
         id="path97" />
      <path
         d="M 311.3644,140.93362 H 312.6594 L 314.2344,134.07362 H 314.3044 L 315.8969,140.93362 H 317.1919 L 319.2919,132.25362 H 317.9969 L 316.5269,138.92112 H 316.4569 L 314.9169,132.25362 H 313.6394 L 312.1519,138.93862 H 312.0819 L 310.5769,132.25362 H 309.2469 Z"
         id="path99" />
      <path
         d="M 320.97189,140.93362 H 322.65189 L 325.27689,137.53862 H 325.34689 L 327.98939,140.93362 H 329.68689 L 326.23939,136.48862 329.52939,132.25362 H 327.84939 L 325.36439,135.42112 H 325.29439 L 322.84439,132.25362 H 321.14689 L 324.43689,136.47112 Z"
         id="path101" />
      <path
         d="M 332.45191,143.76862 H 333.88691 C 335.60191,143.76862 335.98691,143.26112 336.58191,141.86112 L 340.86941,132.25362 H 339.25941 L 336.45941,139.04362 H 336.38941 L 333.51941,132.25362 H 331.90941 L 335.67191,140.77612 335.23441,141.72112 C 334.90191,142.42112 334.63941,142.57862 333.78191,142.57862 H 332.45191 Z"
         id="path103" />
      <path
         d="M 343.5819,140.93362 H 351.4744 V 139.69112 H 345.5244 L 351.2994,133.49612 V 132.25362 H 343.7569 V 133.49612 H 349.3569 L 343.5819,139.69112 Z"
         id="path105" />
      <path
         d="M 66.014403,162.80862 H 67.449403 L 68.376903,160.13112 H 73.486903 L 74.396903,162.80862 H 75.884403 L 71.771903,151.11862 H 70.144403 Z M 68.761903,158.85362 70.896903,152.71112 H 70.966903 L 73.084403,158.85362 Z"
         id="path107" />
      <path
         d="M 78.264403,162.80862 H 82.761903 C 85.264403,162.80862 86.471903,161.44362 86.471903,159.51862 86.471903,158.10112 85.736903,157.12112 84.441903,156.66612 85.526903,156.21112 85.999403,155.16112 85.999403,154.12862 85.999403,152.36112 84.844403,151.11862 82.446903,151.11862 H 78.264403 Z M 82.639403,161.54862 H 79.734403 V 157.40112 H 82.621903 C 84.231903,157.40112 84.966903,158.29362 84.966903,159.43112 84.966903,160.60362 84.284403,161.54862 82.639403,161.54862 Z M 82.534403,156.14112 H 79.734403 V 152.37862 H 82.341903 C 83.829403,152.37862 84.511903,153.21862 84.511903,154.30362 84.511903,155.35362 83.916903,156.14112 82.534403,156.14112 Z"
         id="path109" />
      <path
         d="M 93.401902,163.01862 C 95.326902,163.01862 96.831902,162.10862 97.654402,160.35862 L 96.394402,159.88612 C 95.869402,160.98862 94.889402,161.74112 93.524402,161.74112 91.634402,161.74112 90.006902,160.06112 90.006902,156.94612 90.006902,153.84862 91.616902,152.18612 93.489402,152.18612 94.889402,152.18612 95.834402,152.95612 96.324402,154.05862 L 97.601902,153.56862 C 96.849402,151.83612 95.256902,150.90862 93.489402,150.90862 90.514402,150.90862 88.466902,153.37612 88.466902,156.94612 88.466902,160.51612 90.426902,163.01862 93.401902,163.01862 Z"
         id="path111" />
      <path
         d="M 99.876903,162.80862 H 102.9044 C 106.4219,162.80862 108.9769,161.26862 108.9769,156.94612 108.9769,152.62362 106.4219,151.11862 102.9044,151.11862 H 99.876903 Z M 102.7819,161.53112 H 101.3469 V 152.39612 H 102.7819 C 105.1619,152.39612 107.4719,153.06112 107.4719,156.94612 107.4719,160.83112 105.1619,161.53112 102.7819,161.53112 Z"
         id="path113" />
      <path
         d="M 111.8119,162.80862 H 119.1969 V 161.46112 H 113.3519 V 157.45362 H 117.6919 V 156.12362 H 113.3519 V 152.46612 H 119.1269 V 151.11862 H 111.8119 Z"
         id="path115" />
      <path
         d="M 122.9069,162.80862 H 124.4469 V 157.64612 H 130.1869 V 156.29862 H 124.4469 V 152.46612 H 130.2569 V 151.11862 H 122.9069 Z"
         id="path117" />
      <path
         d="M 137.3269,163.01862 C 138.5169,163.01862 139.9169,162.47612 140.6694,161.23362 L 140.9494,162.80862 H 141.9119 V 156.80612 H 137.4494 V 158.03112 H 140.5469 V 158.46862 C 140.5469,161.05862 138.6919,161.74112 137.4844,161.74112 135.4544,161.74112 133.9844,159.97362 133.9844,156.94612 133.9844,153.79612 135.5244,152.18612 137.4494,152.18612 138.8494,152.18612 139.8119,152.92112 140.2669,154.07612 L 141.5444,153.60362 C 140.8269,151.81862 139.2519,150.90862 137.4669,150.90862 134.4394,150.90862 132.4794,153.30612 132.4794,156.94612 132.4794,160.49862 134.2994,163.01862 137.3269,163.01862 Z"
         id="path119" />
      <path
         d="M 143.9069,162.80862 H 145.4469 V 157.45362 H 151.2919 V 162.80862 H 152.8319 V 151.11862 H 151.2919 V 156.10612 H 145.4469 V 151.11862 H 143.9069 Z"
         id="path121" />
      <path
         d="M 156.2269,162.80862 H 162.6319 V 161.67112 H 160.1994 V 152.25612 H 162.6319 V 151.11862 H 156.2269 V 152.25612 H 158.6594 V 161.67112 H 156.2269 Z"
         id="path123" />
      <path
         d="M 169.9819,163.01862 C 172.4844,163.01862 174.0419,161.68862 174.0419,159.20362 V 151.11862 H 172.5019 V 159.18612 C 172.5019,161.28612 171.1719,161.75862 169.9994,161.75862 168.5819,161.75862 167.3394,160.98862 167.3744,159.06362 L 165.9219,159.50112 C 166.0094,161.82862 167.5669,163.01862 169.9819,163.01862 Z"
         id="path125" />
      <path
         d="M 177.52439,162.80862 H 178.99439 V 159.09862 L 180.77939,157.12112 184.83939,162.80862 H 186.60689 L 181.74189,156.00112 186.09939,151.11862 H 184.31439 L 178.99439,157.17362 V 151.11862 H 177.52439 Z"
         id="path127" />
      <path
         d="M 189.4244,162.80862 H 197.2819 V 161.46112 H 190.9644 V 151.11862 H 189.4244 Z"
         id="path129" />
      <path
         d="M 198.9444,162.80862 H 200.2569 V 152.69362 H 200.3269 L 202.9869,162.80862 H 204.3694 L 206.9944,152.69362 H 207.0644 V 162.80862 H 208.3944 V 151.11862 H 206.2069 L 203.7394,160.81362 H 203.6694 L 201.1669,151.11862 H 198.9444 Z"
         id="path131" />
      <path
         d="M 210.5119,162.80862 H 211.9294 V 152.95612 H 211.9994 L 216.9169,162.80862 H 218.9469 V 151.11862 H 217.5294 V 160.97112 H 217.4594 L 212.5419,151.11862 H 210.5119 Z"
         id="path133" />
      <path
         d="M 225.7894,163.01862 C 228.8344,163.01862 230.6194,160.53362 230.6194,156.96362 230.6194,153.39362 228.8344,150.90862 225.7894,150.90862 222.7444,150.90862 220.9594,153.39362 220.9594,156.96362 220.9594,160.53362 222.7444,163.01862 225.7894,163.01862 Z M 225.7894,161.74112 C 223.8819,161.74112 222.4819,160.07862 222.4819,156.96362 222.4819,153.84862 223.8819,152.18612 225.7894,152.18612 227.6969,152.18612 229.0969,153.84862 229.0969,156.96362 229.0969,160.07862 227.6969,161.74112 225.7894,161.74112 Z"
         id="path135" />
      <path
         d="M 233.1394,162.80862 H 234.6094 V 158.11862 H 237.2169 C 239.6844,158.11862 241.4169,157.01612 241.4169,154.61862 241.4169,152.22112 239.6844,151.11862 237.2169,151.11862 H 233.1394 Z M 237.1119,156.85862 H 234.6094 V 152.37862 H 237.1119 C 238.7744,152.37862 239.9119,152.95612 239.9119,154.61862 239.9119,156.28112 238.7744,156.85862 237.1119,156.85862 Z"
         id="path137" />
      <path
         d="M 247.90939,163.01862 C 249.23939,163.01862 250.34189,162.52862 251.12939,161.68862 L 252.56439,163.03612 253.43939,162.10862 251.89939,160.65612 C 252.44189,159.65862 252.73939,158.39862 252.73939,156.96362 252.73939,153.39362 250.95439,150.90862 247.90939,150.90862 244.86439,150.90862 243.07939,153.39362 243.07939,156.96362 243.07939,160.53362 244.86439,163.01862 247.90939,163.01862 Z M 247.90939,161.74112 C 246.00189,161.74112 244.60189,160.07862 244.60189,156.96362 244.60189,153.84862 246.00189,152.18612 247.90939,152.18612 249.81689,152.18612 251.21689,153.84862 251.21689,156.96362 251.21689,158.01362 251.04189,158.87112 250.72689,159.55362 L 248.29439,157.26112 247.41939,158.18862 250.11439,160.74362 C 249.53689,161.40862 248.78439,161.74112 247.90939,161.74112 Z"
         id="path139" />
      <path
         d="M 255.17189,162.80862 H 256.64189 V 157.94362 H 258.39189 L 261.68189,162.80862 H 263.46689 L 259.96689,157.80362 C 261.87439,157.57612 263.16939,156.54362 263.16939,154.53112 263.16939,152.18612 261.45439,151.11862 259.05689,151.11862 H 255.17189 Z M 259.00439,156.68362 H 256.64189 V 152.37862 H 259.00439 C 260.50939,152.37862 261.64689,152.99112 261.64689,154.53112 261.64689,156.07112 260.50939,156.68362 259.00439,156.68362 Z"
         id="path141" />
      <path
         d="M 270.02939,163.01862 C 272.39189,163.01862 274.45689,161.65362 274.45689,159.48362 274.45689,157.47112 272.98689,156.71862 270.85189,156.21112 L 269.32939,155.82612 C 268.27939,155.58112 267.43939,155.05612 267.43939,154.11112 267.43939,152.81612 268.62939,152.18612 270.01189,152.18612 271.02689,152.18612 272.12939,152.67612 272.60189,153.62112 L 274.03689,153.07862 C 273.31939,151.57362 271.69189,150.90862 270.06439,150.90862 267.71939,150.90862 265.88189,152.23862 265.88189,154.14612 265.88189,156.00112 267.28189,156.82362 268.99689,157.22612 L 270.44939,157.57612 C 272.28689,158.01362 272.89939,158.57362 272.89939,159.55362 272.89939,161.00612 271.60439,161.74112 270.06439,161.74112 268.73439,161.74112 267.43939,161.09362 267.05439,159.72862 L 265.60189,160.27112 C 266.21439,162.14362 268.15689,163.01862 270.02939,163.01862 Z"
         id="path143" />
      <path
         d="M 280.31939,162.80862 H 281.85939 V 152.46612 H 285.58689 V 151.11862 H 276.59189 V 152.46612 H 280.31939 Z"
         id="path145" />
      <path
         d="M 292.14938,163.01862 C 295.10688,163.01862 296.36688,161.49612 296.36688,158.43362 V 151.11862 H 294.80938 V 158.59112 C 294.80938,160.63862 294.07438,161.74112 292.14938,161.74112 290.24188,161.74112 289.48938,160.63862 289.48938,158.59112 V 151.11862 H 287.93188 V 158.43362 C 287.93188,161.49612 289.17438,163.01862 292.14938,163.01862 Z"
         id="path147" />
      <path
         d="M 302.3869,162.80862 H 304.0144 L 307.9694,151.11862 H 306.4819 L 303.2619,161.09362 H 303.1919 L 299.9894,151.11862 H 298.4494 Z"
         id="path149" />
      <path
         d="M 311.0144,162.80862 H 312.6419 L 314.2519,153.39362 H 314.3219 L 315.9144,162.80862 H 317.5419 L 319.6069,151.11862 H 318.2944 L 316.7719,160.83112 H 316.7019 L 315.0394,151.11862 H 313.5519 L 311.8719,160.83112 H 311.8019 L 310.2794,151.11862 H 308.9319 Z"
         id="path151" />
      <path
         d="M 320.32439,162.80862 H 322.03939 L 325.29439,158.03112 H 325.36439 L 328.63689,162.80862 H 330.33439 L 326.22189,156.78862 330.10689,151.11862 H 328.37439 L 325.34689,155.54612 H 325.27689 L 322.24939,151.11862 H 320.55189 L 324.45439,156.78862 Z"
         id="path153" />
      <path
         d="M 335.67191,162.80862 H 337.14191 V 158.15362 L 341.42941,151.11862 H 339.73191 L 336.44191,156.61362 H 336.37191 L 333.06441,151.11862 H 331.34941 L 335.67191,158.15362 Z"
         id="path155" />
      <path
         d="M 342.8294,162.80862 H 352.0694 V 161.44362 H 344.6844 L 351.8069,152.50112 V 151.11862 H 343.0919 V 152.48362 H 349.9694 L 342.8294,161.42612 Z"
         id="path157" />
      <path
         d="M 70.949403,184.89362 C 73.101903,184.89362 75.359403,183.49362 75.359403,180.34362 75.359403,177.17612 73.101903,175.81112 70.949403,175.81112 68.796903,175.81112 66.539403,177.17612 66.539403,180.34362 66.539403,183.49362 68.796903,184.89362 70.949403,184.89362 Z M 70.949403,183.66862 C 69.426903,183.66862 68.061903,182.61862 68.061903,180.34362 68.061903,178.06862 69.444403,177.03612 70.949403,177.03612 72.454403,177.03612 73.836903,178.06862 73.836903,180.34362 73.836903,182.61862 72.471903,183.66862 70.949403,183.66862 Z"
         id="path159" />
      <path
         d="M 82.009403,184.89362 C 85.054403,184.89362 86.839403,182.40862 86.839403,178.83862 86.839403,175.26862 85.054403,172.78362 82.009403,172.78362 78.964403,172.78362 77.179403,175.26862 77.179403,178.83862 77.179403,182.40862 78.964403,184.89362 82.009403,184.89362 Z M 82.009403,183.61612 C 80.101903,183.61612 78.701903,181.95362 78.701903,178.83862 78.701903,175.72362 80.101903,174.06112 82.009403,174.06112 83.916903,174.06112 85.316903,175.72362 85.316903,178.83862 85.316903,181.95362 83.916903,183.61612 82.009403,183.61612 Z"
         id="path161" />
      <path
         d="M 93.069402,184.91112 C 95.939402,184.91112 97.671902,182.74112 97.671902,178.82112 97.671902,174.90112 95.939402,172.74862 93.069402,172.74862 90.199402,172.74862 88.466902,174.90112 88.466902,178.82112 88.466902,182.74112 90.199402,184.91112 93.069402,184.91112 Z M 93.069402,183.70362 C 91.284402,183.70362 89.971902,182.33862 89.971902,178.82112 89.971902,177.59612 90.129402,176.61612 90.461902,175.88112 L 95.169402,182.74112 C 94.644402,183.42362 93.909402,183.70362 93.069402,183.70362 Z M 95.694402,181.72612 90.986902,174.88362 C 91.529402,174.23612 92.229402,173.93862 93.069402,173.93862 94.994402,173.93862 96.166902,175.65362 96.166902,178.82112 96.166902,180.06362 96.009402,181.00862 95.694402,181.72612 Z"
         id="path163" />
      <path
         d="M 104.1294,184.87612 C 106.6669,184.87612 108.4519,183.40612 108.4519,181.32362 108.4519,179.92362 107.5769,178.78612 106.1944,178.22612 106.8769,177.68362 107.2969,176.86112 107.2969,175.89862 107.2969,174.16612 105.9319,172.74862 104.1294,172.74862 102.3269,172.74862 100.9619,174.16612 100.9619,175.89862 100.9619,176.86112 101.3819,177.68362 102.0644,178.22612 100.6819,178.78612 99.806903,179.92362 99.806903,181.32362 99.806903,183.40612 101.5744,184.87612 104.1294,184.87612 Z M 104.1294,183.59862 C 102.4319,183.59862 101.3294,182.60112 101.3294,181.32362 101.3294,180.04612 102.4319,179.06612 104.1294,179.06612 105.8094,179.06612 106.9294,180.04612 106.9294,181.32362 106.9294,182.60112 105.8094,183.59862 104.1294,183.59862 Z M 104.1294,177.82362 C 103.0794,177.82362 102.2394,176.98362 102.2394,175.91612 102.2394,174.86612 103.0794,174.04362 104.1294,174.04362 105.1794,174.04362 106.0019,174.86612 106.0019,175.91612 106.0019,176.98362 105.1794,177.82362 104.1294,177.82362 Z"
         id="path165" />
      <path
         d="M 122.6444,184.68362 H 130.2744 V 183.51112 H 127.2119 V 176.00362 H 123.0994 V 177.17612 H 125.7069 V 183.51112 H 122.6444 Z M 126.2669,174.30612 C 126.8619,174.30612 127.3344,173.83362 127.3344,173.23862 127.3344,172.66112 126.8619,172.17112 126.2669,172.17112 125.6719,172.17112 125.1994,172.66112 125.1994,173.23862 125.1994,173.83362 125.6719,174.30612 126.2669,174.30612 Z"
         id="path167" />
      <path
         d="M 134.1069,184.68362 H 140.5119 V 183.54612 H 138.0794 V 174.13112 H 140.5119 V 172.99362 H 134.1069 V 174.13112 H 136.5394 V 183.54612 H 134.1069 Z"
         id="path169" />
      <path
         d="M 148.8419,184.68362 H 152.3594 V 183.44112 H 149.1919 C 148.3694,183.44112 148.2469,183.24862 148.2469,182.49612 V 172.29362 H 144.7294 V 173.46612 H 146.7419 V 182.77612 C 146.7419,184.26362 147.2319,184.68362 148.8419,184.68362 Z"
         id="path171" />
      <path
         d="M 156.2444,184.68362 H 164.1019 V 183.33612 H 157.7844 V 172.99362 H 156.2444 Z"
         id="path173" />
      <path
         d="M 166.9894,184.68362 H 174.1469 V 183.42362 H 171.4519 V 172.99362 H 170.4019 C 169.9119,174.42862 168.9494,174.67362 166.9544,174.67362 V 175.81112 H 169.9819 V 183.42362 H 166.9894 Z"
         id="path175" />
      <path
         d="M 193.2394,187.51862 H 195.4444 V 186.34612 H 193.3444 C 192.7144,186.34612 192.5219,186.17112 192.5219,185.62862 V 182.21612 C 192.5219,180.78112 192.1194,180.23862 191.2094,179.95862 V 179.85362 C 192.1194,179.57362 192.5219,179.03112 192.5219,177.59612 V 174.18362 C 192.5219,173.64112 192.7144,173.46612 193.3444,173.46612 H 195.4444 V 172.29362 H 193.2394 C 191.4894,172.29362 191.0869,172.88862 191.0869,174.28862 V 177.66612 C 191.0869,178.89112 190.7719,179.25862 189.4594,179.31112 V 180.50112 C 190.7719,180.55362 191.0869,180.92112 191.0869,182.14612 V 185.52362 C 191.0869,186.92362 191.4894,187.51862 193.2394,187.51862 Z"
         id="path177" />
      <path
         d="M 200.8344,187.51862 H 203.0394 C 204.7894,187.51862 205.1919,186.92362 205.1919,185.52362 V 182.14612 C 205.1919,180.92112 205.5069,180.55362 206.8194,180.50112 V 179.31112 C 205.5069,179.25862 205.1919,178.89112 205.1919,177.66612 V 174.28862 C 205.1919,172.88862 204.7894,172.29362 203.0394,172.29362 H 200.8344 V 173.46612 H 202.9344 C 203.5644,173.46612 203.7569,173.64112 203.7569,174.18362 V 177.59612 C 203.7569,179.03112 204.1594,179.57362 205.0694,179.85362 V 179.95862 C 204.1594,180.23862 203.7569,180.78112 203.7569,182.21612 V 185.62862 C 203.7569,186.17112 203.5644,186.34612 202.9344,186.34612 H 200.8344 Z"
         id="path179" />
      <path
         d="M 223.7244,187.51862 H 228.5719 V 186.39862 H 225.0894 V 173.41362 H 228.5719 V 172.29362 H 223.7244 Z"
         id="path181" />
      <path
         d="M 234.0669,187.51862 H 238.9144 V 172.29362 H 234.0669 V 173.41362 H 237.5494 V 186.39862 H 234.0669 Z"
         id="path183" />
      <path
         d="M 258.89939,188.02612 C 261.31439,188.02612 262.94189,186.81862 262.94189,184.52612 V 176.00362 H 261.73439 L 261.45439,177.45612 C 260.85939,176.47612 259.75689,175.81112 258.37439,175.81112 256.18689,175.81112 254.47189,177.36862 254.47189,180.20362 254.47189,182.93362 256.18689,184.52612 258.40939,184.52612 259.75689,184.52612 260.80689,183.91362 261.45439,182.98612 V 184.63112 C 261.45439,186.18862 260.33439,186.80112 258.93439,186.80112 257.67439,186.80112 256.81689,186.34612 256.57189,185.57612 L 255.24189,186.04862 C 255.73189,187.48362 257.35939,188.02612 258.89939,188.02612 Z M 258.77689,183.30112 C 257.14939,183.30112 255.99439,182.19862 255.99439,180.16862 255.99439,178.15612 257.14939,177.03612 258.77689,177.03612 260.38689,177.03612 261.48939,178.20862 261.48939,180.20362 261.48939,182.18112 260.40439,183.30112 258.77689,183.30112 Z"
         id="path185" />
      <path
         d="M 271.00939,180.86862 268.68189,184.68362 H 270.27439 L 273.07439,179.90612 C 273.75689,178.75112 274.10689,178.03362 274.10689,176.93112 274.10689,174.62112 272.23439,172.74862 269.90689,172.74862 267.59689,172.74862 265.74189,174.60362 265.74189,176.93112 265.74189,179.94112 268.73439,181.63862 271.00939,180.86862 Z M 269.94189,179.74862 C 268.41939,179.74862 267.12439,178.52362 267.12439,176.93112 267.12439,175.40862 268.33189,174.13112 269.92439,174.13112 271.55189,174.13112 272.72439,175.46112 272.72439,176.93112 272.72439,178.48862 271.48189,179.74862 269.94189,179.74862 Z"
         id="path187" />
      <path
         d="M 285.42939,187.72862 C 285.91939,187.72862 286.32189,187.60612 286.61939,187.46612 V 186.18862 C 286.33939,186.34612 286.07689,186.41612 285.77939,186.41612 285.13189,186.41612 284.92189,185.97862 284.92189,185.15612 V 176.00362 H 283.69689 L 283.43439,177.45612 C 282.83939,176.47612 281.77189,175.81112 280.42439,175.81112 278.09689,175.81112 276.48689,177.50862 276.48689,180.36112 276.48689,183.21362 278.09689,184.89362 280.40689,184.89362 281.77189,184.89362 282.82189,184.22862 283.43439,183.26612 V 185.41862 C 283.43439,187.23862 284.30939,187.72862 285.42939,187.72862 Z M 280.77439,183.66862 C 279.14689,183.66862 278.00939,182.47862 278.00939,180.34362 278.00939,178.20862 279.14689,177.03612 280.77439,177.03612 282.36689,177.03612 283.46939,178.24362 283.46939,180.34362 283.46939,182.44362 282.38439,183.66862 280.77439,183.66862 Z"
         id="path189" />
      <path
         d="M 292.48188,184.89362 C 294.40688,184.89362 295.91188,183.98362 296.73438,182.23362 L 295.47438,181.76112 C 294.94938,182.86362 293.96938,183.61612 292.60438,183.61612 290.71438,183.61612 289.08688,181.93612 289.08688,178.82112 289.08688,175.72362 290.69688,174.06112 292.56938,174.06112 293.96938,174.06112 294.91438,174.83112 295.40438,175.93362 L 296.68188,175.44362 C 295.92938,173.71112 294.33688,172.78362 292.56938,172.78362 289.59438,172.78362 287.54688,175.25112 287.54688,178.82112 287.54688,182.39112 289.50688,184.89362 292.48188,184.89362 Z"
         id="path191" />
      <path
         d="M 303.2269,184.89362 C 304.4169,184.89362 305.8169,184.35112 306.5694,183.10862 L 306.8494,184.68362 H 307.8119 V 178.68112 H 303.3494 V 179.90612 H 306.4469 V 180.34362 C 306.4469,182.93362 304.5919,183.61612 303.3844,183.61612 301.3544,183.61612 299.8844,181.84862 299.8844,178.82112 299.8844,175.67112 301.4244,174.06112 303.3494,174.06112 304.7494,174.06112 305.7119,174.79612 306.1669,175.95112 L 307.4444,175.47862 C 306.7269,173.69362 305.1519,172.78362 303.3669,172.78362 300.3394,172.78362 298.3794,175.18112 298.3794,178.82112 298.3794,182.37362 300.1994,184.89362 303.2269,184.89362 Z"
         id="path193" />
      <path
         d="M 314.2694,184.89362 C 315.5994,184.89362 316.7019,184.40362 317.4894,183.56362 L 318.9244,184.91112 319.7994,183.98362 318.2594,182.53112 C 318.8019,181.53362 319.0994,180.27362 319.0994,178.83862 319.0994,175.26862 317.3144,172.78362 314.2694,172.78362 311.2244,172.78362 309.4394,175.26862 309.4394,178.83862 309.4394,182.40862 311.2244,184.89362 314.2694,184.89362 Z M 314.2694,183.61612 C 312.3619,183.61612 310.9619,181.95362 310.9619,178.83862 310.9619,175.72362 312.3619,174.06112 314.2694,174.06112 316.1769,174.06112 317.5769,175.72362 317.5769,178.83862 317.5769,179.88862 317.4019,180.74612 317.0869,181.42862 L 314.6544,179.13612 313.7794,180.06362 316.4744,182.61862 C 315.8969,183.28362 315.1444,183.61612 314.2694,183.61612 Z"
         id="path195" />
      <path
         d="M 332.24191,181.21862 333.39691,181.55112 C 333.43191,180.64112 333.79941,180.22112 334.48191,180.22112 335.58441,180.22112 336.96691,181.34112 338.33191,181.34112 339.76691,181.34112 340.37941,180.43112 340.51941,179.06612 L 339.36441,178.75112 C 339.32941,179.66112 338.96191,180.06362 338.27941,180.06362 337.17691,180.06362 335.79441,178.94362 334.41191,178.94362 332.99441,178.94362 332.38191,179.85362 332.24191,181.21862 Z"
         id="path197" />
      <path
         d="M 344.9119,181.02612 H 349.9869 V 179.64362 H 344.9119 Z"
         id="path199" />
      <path
         d="M 357.8619,184.68362 H 359.1569 V 180.99112 H 362.9019 V 179.69612 H 359.1569 V 176.00362 H 357.8619 V 179.69612 H 354.1169 V 180.99112 H 357.8619 Z"
         id="path201" />
      <path
         d="M 365.1769,179.36362 H 373.9619 V 178.05112 H 365.1769 Z M 365.1769,182.53112 H 373.9619 V 181.23612 H 365.1769 Z"
         id="path203" />
      <path
         d="M 376.4994,184.63112 384.7594,180.90362 V 179.78362 L 376.4994,176.03862 V 177.54362 L 382.9744,180.34362 376.4994,183.14362 Z"
         id="path205" />
    </g>
  </g>
</svg>
