<?xml version="1.0" encoding="UTF-8" standalone="no"?>
<!-- Created with Inkscape (http://www.inkscape.org/) -->

<svg
   width="64"
   height="64"
   viewBox="0 0 16.933333 16.933333"
   version="1.1"
   id="svg1"
   xml:space="preserve"
   inkscape:version="1.3.2 (091e20ef0f, 2023-11-25)"
   sodipodi:docname="licence.svg"
   xmlns:inkscape="http://www.inkscape.org/namespaces/inkscape"
   xmlns:sodipodi="http://sodipodi.sourceforge.net/DTD/sodipodi-0.dtd"
   xmlns="http://www.w3.org/2000/svg"
   xmlns:svg="http://www.w3.org/2000/svg"><sodipodi:namedview
     id="namedview1"
     pagecolor="#ffffff"
     bordercolor="#000000"
     borderopacity="0.25"
     inkscape:showpageshadow="2"
     inkscape:pageopacity="0.0"
     inkscape:pagecheckerboard="0"
     inkscape:deskcolor="#d1d1d1"
     inkscape:document-units="mm"
     inkscape:zoom="2.8114698"
     inkscape:cx="37.524856"
     inkscape:cy="40.370343"
     inkscape:window-width="1920"
     inkscape:window-height="1011"
     inkscape:window-x="0"
     inkscape:window-y="0"
     inkscape:window-maximized="1"
     inkscape:current-layer="layer1" /><defs
     id="defs1" /><g
     inkscape:label="Layer 1"
     inkscape:groupmode="layer"
     id="layer1"><circle
       style="opacity:0.7;fill:#ffffff;fill-opacity:1;stroke:none;stroke-width:0.122465;stroke-dasharray:none"
       id="path4-5"
       cx="8.4666662"
       cy="8.598958"
       r="7.2744584" /><circle
       style="opacity:0.7;fill:#8ff0a4;fill-opacity:1;stroke:none;stroke-width:0.122465;stroke-dasharray:none"
       id="path4"
       cx="8.4666662"
       cy="8.598958"
       r="7.2744584" /><g
       fill="#222222"
       id="g3"
       transform="matrix(0.37294265,0,0,0.37294265,5.4777699,5.2160854)"><path
         d="M 1.6495137,4.1700568 C 1.4897789,4.1762017 1.3300426,4.2069197 1.176451,4.2622124 0.01529656,4.4342353 -3.0012488,5.3496427 -3.0012488,10.479613 v 7.863905 h 6.2911245 v -7.378554 c 0.1597348,0.110582 0.3194711,0.215027 0.4792075,0.307183 0.9092625,0.503782 1.8185282,0.681948 2.666355,0.749529 v -1.542063 h 1.572781 V 8.9068316 c -0.0061,0 -0.0061,0 -0.01229,0 C 6.7794842,8.9129749 5.9316572,8.8699688 5.2927149,8.5136363 4.6537726,8.1634472 3.9226747,7.4077746 3.2100083,5.263632 2.9949792,4.5878268 2.3560369,4.1393389 1.6495137,4.1700568 Z m 0,0"
         id="path1"
         style="fill:#26a269;fill-opacity:1;stroke:none;stroke-width:1.57278" /><path
         d="m 14.299343,-3.6754173 c -1.73866,0 -3.145562,1.4069014 -3.145562,3.14556221 0,1.73866079 1.406902,3.14556219 3.145562,3.14556219 1.738661,0 3.145563,-1.4069014 3.145563,-3.14556219 0,-1.73866081 -1.406902,-3.14556221 -3.145563,-3.14556221 z m -0.06758,7.8454741 C 13.580534,4.1946315 13.009172,4.6308329 12.80643,5.263632 12.093763,7.4077746 11.362665,8.1634472 10.723723,8.5136363 10.084781,8.8699688 9.2369542,8.9129749 8.0143622,8.9068316 h -0.0061 v 1.5727814 h -1.572781 v 1.542063 c 0.264178,0.01843 0.522212,0.02458 0.774104,0.02458 0.0061,-8e-6 0.0061,0.0061 0.01229,0.0061 h 0.774104 0.01843 0.780247 c 0.0061,0 0.0061,-0.0061 0.01228,-0.0061 1.056714,-0.01227 2.2485858,-0.116732 3.4404578,-0.774104 0.159737,-0.09215 0.319473,-0.196598 0.479208,-0.307183 v 7.378536 h 6.291124 V 10.4796 c 4e-6,-5.1299703 -3.016542,-6.0453777 -4.171553,-6.2174006 -0.159735,-0.055293 -0.319471,-0.086011 -0.479206,-0.092156 -0.04915,-0.00615 -0.09215,-0.00615 -0.135165,0 z m 0,0"
         fill-opacity="0.5"
         id="path2"
         style="fill:#33d17a;fill-opacity:1;stroke-width:1.57278" /><path
         d="m 1.7170945,-3.6754173 c -1.73866074,0 -3.1455622,1.4069014 -3.1455622,3.14556221 0,1.73866079 1.40690146,3.14556219 3.1455622,3.14556219 1.7386608,0 3.1455623,-1.4069014 3.1455623,-3.14556219 0,-1.73866081 -1.4069015,-3.14556221 -3.1455623,-3.14556221 z m 0,0"
         id="path3"
         style="fill:#26a269;fill-opacity:1;stroke:none;stroke-width:1.57278" /></g></g></svg>
