<?xml version="1.0" encoding="UTF-8"?>
<svg height="128px" viewBox="0 0 128 128" width="128px" xmlns="http://www.w3.org/2000/svg" xmlns:xlink="http://www.w3.org/1999/xlink">
    <linearGradient id="a" gradientTransform="matrix(-1 0 0 -1 136.191773 -171.820114)" gradientUnits="userSpaceOnUse" x1="27.99999" x2="115.999992" y1="-274" y2="-274">
        <stop offset="0" stop-color="#c0bfbc"/>
        <stop offset="0.0454545" stop-color="#f6f5f4"/>
        <stop offset="0.0909091" stop-color="#deddda"/>
        <stop offset="0.909091" stop-color="#deddda"/>
        <stop offset="0.954545" stop-color="#f6f5f4"/>
        <stop offset="1" stop-color="#c0bfbc"/>
    </linearGradient>
    <linearGradient id="b" gradientUnits="userSpaceOnUse">
        <stop offset="0" stop-opacity="0.156863"/>
        <stop offset="1" stop-opacity="0"/>
    </linearGradient>
    <linearGradient id="c" gradientTransform="matrix(0.965926 0.258819 -0.258819 0.965926 -3.808201 -191.820095)" x1="167.194427" x2="171.058136" xlink:href="#b" y1="191.243362" y2="190.208084"/>
    <linearGradient id="d" gradientTransform="matrix(-0.965926 -0.258819 0.258819 -0.965926 132.18041 312.172966)" x1="167.194427" x2="171.058136" xlink:href="#b" y1="191.243362" y2="190.208084"/>
    <linearGradient id="e" gradientUnits="userSpaceOnUse" x1="97.030178" x2="101.810207" y1="25.018284" y2="20.238255">
        <stop offset="0" stop-color="#deddda"/>
        <stop offset="1" stop-color="#f3f2ef"/>
    </linearGradient>
    <linearGradient id="f" gradientUnits="userSpaceOnUse" x1="84.83617" x2="95.46249" y1="35.449177" y2="24.822849">
        <stop offset="0" stop-color="#ffffff"/>
        <stop offset="0.342347" stop-color="#ececec"/>
        <stop offset="0.7" stop-color="#e8e8e8"/>
        <stop offset="1" stop-color="#ffffff"/>
    </linearGradient>
    <path d="m 42.875 0.632812 l 69.546875 18.636719 c 4.269531 1.144531 6.800781 5.53125 5.660156 9.796875 l -22.777343 85.003906 c -1.144532 4.265626 -5.53125 6.796876 -9.796876 5.65625 l -69.546874 -18.636718 c -4.269532 -1.144532 -6.800782 -5.53125 -5.65625 -9.796875 l 22.773437 -85 c 1.144531 -4.269531 5.53125 -6.800781 9.796875 -5.660157 z m 0 0" fill="#deddda"/>
    <path d="m 28.191406 61.179688 h 72 c 4.417969 0 8 3.582031 8 8 v 43 c 0 4.417968 -3.582031 8 -8 8 h -72 c -4.417968 0 -8 -3.582032 -8 -8 v -43 c 0 -4.417969 3.582032 -8 8 -8 z m 0 0" fill="#deddda"/>
    <path d="m 100.191406 120.179688 h -72 c -4.417968 0 -8 -3.582032 -8 -8 v -24 c 0 -4.417969 3.582032 -8 8 -8 h 72 c 4.417969 0 8 3.582031 8 8 v 24 c 0 4.417968 -3.582031 8 -8 8 z m 0 0" fill="url(#a)"/>
    <path d="m 100.191406 15.992188 v 79.839843 l 17.890625 -66.765625 c 1.144531 -4.28125 -1.375 -8.648437 -5.65625 -9.796875 z m 0 0" fill="url(#c)"/>
    <path d="m 28.179688 104.359375 v -79.835937 l -17.886719 66.761718 c -1.148438 4.28125 1.375 8.652344 5.65625 9.796875 z m 0 0" fill="url(#d)"/>
    <path d="m 28.191406 8.179688 h 72 c 4.417969 0 8 3.582031 8 8 v 88 c 0 4.417968 -3.582031 8 -8 8 h -72 c -4.417968 0 -8 -3.582032 -8 -8 v -88 c 0 -4.417969 3.582032 -8 8 -8 z m 0 0" fill="#f6f5f4"/>
    <path d="m 108.191406 106.835938 c -0.082031 4.089843 -3.378906 7.34375 -7.492187 7.34375 h -0.5 v 1 h 0.5 c 3.222656 0 6.023437 -1.789063 7.464843 -4.425782 c 0.011719 -0.191406 0.027344 -0.378906 0.027344 -0.574218 z m -42 7.34375 l 34 1 v -1 z m 0 0" fill="#939290" fill-opacity="0.270588"/>
    <path d="m 66.378906 114.601562 l 14.082032 5.578126 c 13 5.855468 14.671874 -5.261719 14.671874 -5.578126 z m 0 0" fill-opacity="0.184314"/>
    <path d="m 108.191406 109.835938 c -0.082031 4.089843 -3.378906 7.34375 -7.492187 7.34375 h -0.5 v 1 h 0.5 c 3.222656 0 6.023437 -1.789063 7.464843 -4.425782 c 0.011719 -0.191406 0.027344 -0.378906 0.027344 -0.574218 z m -42 7.34375 l 34 1 v -1 z m 0 0" fill="#939290" fill-opacity="0.270588"/>
    <path d="m 66.378906 114.601562 l 19.128906 5.125 c 4.097657 1.097657 8.269532 -1.175781 9.625 -5.125 z m 0 0" fill="#f6f5f4"/>
    <path d="m 36.191406 85.683594 h 55.503906 c 2.210938 0 4 1.792968 4 4 c 0 2.210937 -1.789062 4 -4 4 h -55.503906 c -2.207031 0 -4 -1.789063 -4 -4 c 0 -2.207032 1.792969 -4 4 -4 z m 0 0" fill="#deddda"/>
    <path d="m 20.191406 109.835938 c 0.082032 4.089843 3.382813 7.34375 7.492188 7.34375 h 0.5 v 1 h -0.5 c -3.222656 0 -6.019532 -1.789063 -7.460938 -4.425782 c -0.015625 -0.191406 -0.03125 -0.378906 -0.03125 -0.574218 z m 42 7.34375 l -34 1 v -1 z m 0 0" fill="#908f8d" fill-opacity="0.270588"/>
    <path d="m 20.191406 106.835938 c 0.082032 4.089843 3.382813 7.34375 7.492188 7.34375 h 0.5 v 1 h -0.5 c -3.222656 0 -6.019532 -1.789063 -7.460938 -4.425782 c -0.015625 -0.191406 -0.03125 -0.378906 -0.03125 -0.574218 z m 78 7.34375 l -70 1 v -1 z m 0 0" fill="#908f8d" fill-opacity="0.270588"/>
    <path d="m 80.191406 8.179688 l 26 26 c 2.039063 3.136718 2 6 2 6 v -24 c 0 -4.433594 -3.566406 -8 -8 -8 z m 0 0" fill="url(#e)"/>
    <path d="m 105.191406 35.457031 l -25 -25 v 20 c 0 4.429688 3.570313 8 8 8 h 15.796875 c 2.203125 0 4.5625 2.507813 4.203125 4 c -0.03125 -2.640625 -1.109375 -5.15625 -3 -7 z m 0 0" fill-opacity="0.211765"/>
    <path d="m 105.191406 33.179688 l -25 -25 v 20 c 0 4.433593 3.570313 8 8 8 h 15.796875 c 2.203125 0 4.5625 2.511718 4.203125 4 c -0.03125 -2.636719 -1.109375 -5.15625 -3 -7 z m 0 0" fill="url(#f)"/>
    <path d="m 36.191406 85.683594 h 35.503906 c 2.210938 0 4 1.792968 4 4 c 0 2.210937 -1.789062 4 -4 4 h -35.503906 c -2.207031 0 -4 -1.789063 -4 -4 c 0 -2.207032 1.792969 -4 4 -4 z m 0 0" fill="#f6d32d"/>
    <path d="m 52.855469 56.746094 c 0.808593 0 1.289062 -0.078125 1.441406 -0.230469 c 0.195313 -0.152344 0.175781 -0.578125 -0.054687 -1.269531 l -2.425782 -6.933594 c -0.5 -1.539062 -0.867187 -2.636719 -1.097656 -3.289062 c -0.191406 -0.65625 -0.367188 -1.078126 -0.519531 -1.273438 h -0.117188 c -0.113281 0.195312 -0.308593 0.675781 -0.578125 1.445312 c -0.230468 0.730469 -0.613281 1.769532 -1.152344 3.117188 l -2.425781 6.757812 c -0.308593 0.847657 -0.40625 1.347657 -0.289062 1.503907 c 0.113281 0.113281 0.519531 0.171875 1.210937 0.171875 z m -6.929688 2.597656 c -0.386719 0 -0.675781 0.019531 -0.867187 0.058594 c -0.191406 0 -0.347656 0.058594 -0.460938 0.175781 c -0.117187 0.074219 -0.234375 0.230469 -0.347656 0.460937 c -0.078125 0.191407 -0.171875 0.480469 -0.289062 0.867188 l -2.367188 6.929688 c -0.308594 0.847656 -0.519531 1.519531 -0.636719 2.019531 c -0.078125 0.464843 -0.078125 0.828125 0 1.097656 c 0.078125 0.230469 0.269531 0.40625 0.578125 0.519531 c 0.308594 0.078125 0.730469 0.15625 1.269532 0.230469 l 1.675781 0.289063 c 0.191406 0.195312 0.269531 0.5 0.230469 0.925781 c 0 0.382812 -0.113282 0.636719 -0.347657 0.75 c -0.921875 -0.078125 -1.886719 -0.113281 -2.886719 -0.113281 c -0.960937 0 -2.039062 -0.019532 -3.234374 -0.058594 c -1.808594 0 -3.714844 0.058594 -5.714844 0.171875 c -0.195313 -0.152344 -0.289063 -0.402344 -0.289063 -0.75 c -0.039062 -0.347657 0.035157 -0.65625 0.230469 -0.925781 l 1.730469 -0.289063 c 0.847656 -0.113281 1.484375 -0.34375 1.90625 -0.691406 c 0.425781 -0.347657 0.847656 -1 1.269531 -1.964844 c 0.347656 -0.769531 0.753906 -1.730469 1.214844 -2.886719 c 0.460937 -1.195312 1 -2.578125 1.617187 -4.15625 l 7.910157 -20.5625 c 0.386718 -0.925781 0.675781 -1.730468 0.867187 -2.425781 c 0.230469 -0.691406 0.308594 -1.289063 0.230469 -1.789063 c 0.503906 -0.117187 0.984375 -0.308593 1.445312 -0.578124 c 0.5 -0.308594 0.925782 -0.617188 1.269532 -0.925782 c 0.386718 -0.34375 0.695312 -0.632812 0.925781 -0.863281 c 0.230469 -0.269531 0.363281 -0.40625 0.402343 -0.40625 c 0.425782 0 0.753907 0.152344 0.984376 0.460937 c 0.460937 1.308594 0.882812 2.640626 1.269531 3.988282 c 0.421875 1.308594 0.867187 2.617187 1.328125 3.925781 l 8.316406 24.199219 c 0.347656 0.960937 0.636719 1.730468 0.867188 2.308594 c 0.230468 0.578124 0.5 1.039062 0.808593 1.386718 c 0.308594 0.308594 0.671875 0.539063 1.097657 0.691406 c 0.460937 0.15625 1.058593 0.289063 1.789062 0.40625 l 0.867188 0.171876 c 0.230468 0.195312 0.347656 0.484374 0.347656 0.867187 c 0 0.386719 -0.097656 0.65625 -0.289063 0.808594 c -1.195312 -0.078125 -2.371093 -0.132813 -3.523437 -0.171875 c -1.15625 0 -2.484375 0 -3.984375 0 c -1.234375 0 -2.464844 0.019531 -3.699219 0.058594 c -1.230469 0.035156 -2.347656 0.074218 -3.347656 0.113281 c -0.230469 -0.152344 -0.367188 -0.421875 -0.40625 -0.808594 c -0.039063 -0.382813 0.039062 -0.671875 0.230468 -0.867187 l 1.273438 -0.171876 c 1.039062 -0.117187 1.636719 -0.347656 1.789062 -0.691406 c 0.191407 -0.347656 0.097657 -1.136718 -0.289062 -2.371094 l -2.714844 -7.851562 c -0.152344 -0.386719 -0.289062 -0.675781 -0.402344 -0.867188 c -0.117187 -0.230468 -0.25 -0.386718 -0.40625 -0.460937 c -0.152343 -0.117187 -0.363281 -0.175781 -0.632812 -0.175781 c -0.234375 -0.039063 -0.539062 -0.058594 -0.925781 -0.058594 z m 38.347657 4.851562 c 0 -0.652343 -0.15625 -0.980468 -0.460938 -0.980468 c -0.234375 0 -0.578125 0.078125 -1.039062 0.230468 c -0.464844 0.117188 -0.964844 0.269532 -1.503907 0.460938 c -0.421875 0.15625 -0.828125 0.328125 -1.210937 0.519531 c -0.347656 0.195313 -0.675782 0.445313 -0.984375 0.753907 c -0.269531 0.269531 -0.5 0.613281 -0.691407 1.039062 c -0.15625 0.421875 -0.230468 0.941406 -0.230468 1.558594 c 0 0.769531 0.25 1.519531 0.75 2.253906 c 0.539062 0.730469 1.367187 1.097656 2.484375 1.097656 c 1.039062 0 1.75 -0.289062 2.136719 -0.867187 c 0.382812 -0.578125 0.59375 -1.214844 0.632812 -1.90625 z m 5.660156 1.964844 c -0.191406 3.386719 0.730468 5.082032 2.773437 5.082032 c 0.5 0 0.921875 -0.097657 1.269531 -0.289063 c 0.382813 -0.230469 0.617188 -0.347656 0.691407 -0.347656 c 0.15625 0 0.289062 0.136719 0.40625 0.40625 c 0.152343 0.230469 0.191406 0.480469 0.113281 0.75 c -0.308594 0.425781 -0.691406 0.789062 -1.152344 1.097656 c -0.464844 0.308594 -0.964844 0.558594 -1.503906 0.75 c -0.539062 0.230469 -1.078125 0.40625 -1.617188 0.519531 c -0.539062 0.117188 -1.039062 0.175782 -1.5 0.175782 c -0.730468 0 -1.484374 -0.117188 -2.253906 -0.347657 c -0.730468 -0.230469 -1.367187 -0.65625 -1.90625 -1.269531 c -0.191406 -0.195312 -0.363281 -0.347656 -0.519531 -0.464844 c -0.113281 -0.152344 -0.25 -0.230468 -0.402344 -0.230468 c -0.15625 0 -0.347656 0.078124 -0.578125 0.230468 c -0.230468 0.117188 -0.558594 0.308594 -0.980468 0.578125 c -0.539063 0.347657 -1.234376 0.675781 -2.082032 0.984375 c -0.847656 0.34375 -1.789062 0.519532 -2.828125 0.519532 c -1 0 -1.867187 -0.15625 -2.601562 -0.464844 c -0.730469 -0.304688 -1.347657 -0.710938 -1.847657 -1.210938 c -0.460937 -0.539062 -0.828124 -1.136718 -1.097656 -1.789062 c -0.230468 -0.695313 -0.34375 -1.40625 -0.34375 -2.136719 c 0 -0.503906 0.054688 -1.003906 0.171875 -1.503906 c 0.152344 -0.5 0.40625 -0.980469 0.75 -1.441407 c 0.347657 -0.464843 0.828125 -0.886718 1.445313 -1.273437 c 0.617187 -0.421875 1.425781 -0.808594 2.425781 -1.152344 c 1 -0.347656 2.039063 -0.714843 3.117187 -1.097656 c 1.078126 -0.386719 2.15625 -0.789063 3.234376 -1.214844 c 0.578124 -0.191406 0.945312 -0.402343 1.097656 -0.632812 c 0.15625 -0.269531 0.230468 -0.558594 0.230468 -0.867188 l 0.058594 -1.503906 c 0.039063 -0.730469 0 -1.421875 -0.117187 -2.078125 c -0.074219 -0.691406 -0.25 -1.289062 -0.519531 -1.789062 c -0.269532 -0.5 -0.652344 -0.886719 -1.152344 -1.15625 c -0.464844 -0.308594 -1.039063 -0.460938 -1.734375 -0.460938 c -0.808594 0 -1.5 0.210938 -2.078125 0.632812 c -0.539063 0.425782 -0.867188 1.058594 -0.980469 1.90625 c -0.117187 1.003907 -0.484375 1.695313 -1.097656 2.082032 c -0.425781 0.269531 -0.984375 0.519531 -1.675781 0.75 c -0.695313 0.191406 -1.367188 0.289062 -2.023438 0.289062 c -0.730469 0 -1.097656 -0.308594 -1.097656 -0.925781 c 0 -0.347656 0.136718 -0.828125 0.40625 -1.441406 c 0.269531 -0.617188 0.886718 -1.367188 1.847656 -2.253907 c 0.460938 -0.425781 1.039062 -0.847656 1.734375 -1.269531 c 0.691406 -0.425781 1.441406 -0.808593 2.25 -1.15625 c 0.847656 -0.347656 1.695313 -0.636719 2.542969 -0.867187 c 0.847656 -0.230469 1.636718 -0.347656 2.367187 -0.347656 c 2.308594 0 4.101563 0.578124 5.371094 1.734374 c 1.308594 1.117188 1.90625 2.945313 1.789063 5.488282 z m 0 0"/>
</svg>
