<?xml version="1.0" encoding="UTF-8"?>
<svg height="128px" viewBox="0 0 128 128" width="128px" xmlns="http://www.w3.org/2000/svg" xmlns:xlink="http://www.w3.org/1999/xlink">
    <linearGradient id="a" gradientTransform="matrix(1.18797 0 0 0.62347 -12.382148 10.294451)" gradientUnits="userSpaceOnUse" x1="66.134277" x2="66.134277" y1="30.428228" y2="13.255365">
        <stop offset="0" stop-color="#a5a5a5"/>
        <stop offset="1" stop-color="#dddddd"/>
    </linearGradient>
    <linearGradient id="b" gradientUnits="userSpaceOnUse" x1="64.792929" x2="64.792929" y1="26.587587" y2="12.798614">
        <stop offset="0" stop-color="#bfbfbf"/>
        <stop offset="1" stop-color="#e9e9e9"/>
    </linearGradient>
    <path d="m 114.726562 74.367188 l 6.1875 17.003906 c 1.945313 5.339844 -0.789062 11.203125 -6.128906 13.144531 l -50.933594 18.539063 c -5.339843 1.945312 -11.203124 -0.789063 -13.144531 -6.128907 l -6.191406 -17.007812 z m 0 0" fill="#f6d32d"/>
    <path d="m 28.957031 27.183594 c -5.339843 1.941406 -8.074219 7.804687 -6.128906 13.140625 l 27.242187 74.847656 c 1.941407 5.339844 7.804688 8.074219 13.144532 6.128906 l 50.933594 -18.539062 c 5.339843 -1.941407 8.070312 -7.804688 6.128906 -13.144531 l -27.242188 -74.84375 c -1.941406 -5.339844 -7.804687 -8.074219 -13.144531 -6.128907 z m 22.632813 -0.066406 l 10.921875 -3.976563 c 2.214843 -0.804687 4.652343 0.332031 5.457031 2.546875 c 0.808594 2.21875 -0.328125 4.652344 -2.542969 5.460938 l -10.921875 3.972656 c -2.21875 0.808594 -4.652344 -0.328125 -5.457031 -2.546875 c -0.808594 -2.214844 0.324219 -4.652344 2.542969 -5.457031 z m 0 0" fill="#f8e45c"/>
    <path d="m 35.503906 48.402344 l 53.011719 -19.292969 l 23.863281 65.5625 l -53.011718 19.292969 z m 0 0" fill="#f6f5f4"/>
    <path d="m 35.503906 48.402344 l 53.011719 -19.292969 l 23.226563 63.808594 l -53.011719 19.292969 z m 0 0" fill="#ffffff"/>
    <path d="m 51.128906 25.847656 c -2.21875 0.804688 -3.351562 3.242188 -2.546875 5.457032 l 0.464844 1.269531 c -0.808594 -2.214844 0.324219 -4.652344 2.542969 -5.457031 l 10.921875 -3.976563 c 2.214843 -0.804687 4.652343 0.332031 5.457031 2.546875 l -0.460938 -1.269531 c -0.808593 -2.21875 -3.242187 -3.355469 -5.460937 -2.546875 z m 0 0" fill="#f6d32d"/>
    <path d="m 109.398438 79.605469 l 3.933593 17.558593 c 1.234375 5.515626 -2.210937 10.949219 -7.722656 12.183594 l -52.59375 11.78125 c -5.515625 1.234375 -10.949219 -2.210937 -12.183594 -7.722656 l -3.933593 -17.558594 z m 0 0" fill="#3584e4"/>
    <path d="m 30.835938 22.128906 c -5.515626 1.234375 -8.957032 6.664063 -7.722657 12.179688 l 17.3125 77.285156 c 1.234375 5.515625 6.667969 8.960938 12.179688 7.722656 l 52.597656 -11.78125 c 5.515625 -1.234375 8.957031 -6.667968 7.722656 -12.179687 l -17.3125 -77.289063 c -1.234375 -5.511718 -6.667969 -8.957031 -12.179687 -7.71875 z m 22.328124 2.824219 l 11.277344 -2.527344 c 2.289063 -0.511719 4.546875 0.917969 5.058594 3.207031 c 0.511719 2.289063 -0.917969 4.546876 -3.207031 5.058594 l -11.277344 2.527344 c -2.289063 0.511719 -4.542969 -0.917969 -5.058594 -3.207031 c -0.511719 -2.289063 0.917969 -4.546875 3.207031 -5.058594 z m 0 0" fill="#62a0ea"/>
    <path d="m 34.585938 43.890625 l 54.738281 -12.261719 l 15.167969 67.699219 l -54.742188 12.265625 z m 0 0" fill="#f6f5f4"/>
    <path d="m 34.585938 43.890625 l 54.738281 -12.261719 l 14.761719 65.890625 l -54.742188 12.261719 z m 0 0" fill="#ffffff"/>
    <path d="m 52.871094 23.640625 c -2.289063 0.511719 -3.71875 2.769531 -3.207032 5.058594 l 0.292969 1.3125 c -0.511719 -2.289063 0.917969 -4.546875 3.207031 -5.058594 l 11.277344 -2.527344 c 2.289063 -0.511719 4.546875 0.917969 5.058594 3.207031 l -0.292969 -1.308593 c -0.515625 -2.292969 -2.769531 -3.722657 -5.058593 -3.210938 z m 0 0" fill="#3584e4"/>
    <path d="m 55.890625 20.179688 h 17.804687 v 8.980468 l -17.804687 -0.015625 z m 0 0" fill="url(#a)"/>
    <path d="m 70.511719 28.585938 c 0 3.167968 -2.558594 5.738281 -5.71875 5.738281 c -3.160157 0 -5.71875 -2.570313 -5.71875 -5.738281 c 0 -3.164063 2.558593 -5.734376 5.71875 -5.734376 c 3.160156 0 5.71875 2.570313 5.71875 5.734376 z m 0 0" fill="#ececec" fill-opacity="0.619608"/>
    <path d="m 104.851562 89.382812 v 19.402344 c 0 6.09375 -4.90625 11 -11 11 h -58.117187 c -6.09375 0 -11 -4.90625 -11 -11 v -19.402344 z m 0 0" fill="#33d17a"/>
    <path d="m 35.730469 10.382812 c -6.089844 0 -10.996094 4.90625 -10.996094 10.996094 v 85.40625 c 0 6.089844 4.90625 10.996094 10.996094 10.996094 h 58.121093 c 6.09375 0 10.996094 -4.90625 10.996094 -10.996094 v -85.40625 c 0 -6.089844 -4.902344 -10.996094 -10.996094 -10.996094 z m 22.832031 8.234376 h 12.460938 c 2.53125 0 4.566406 2.039062 4.566406 4.570312 s -2.035156 4.566406 -4.566406 4.566406 h -12.460938 c -2.53125 0 -4.566406 -2.035156 -4.566406 -4.566406 s 2.035156 -4.570312 4.566406 -4.570312 z m 0 0" fill="#57e389"/>
    <path d="m 34.546875 34.167969 h 60.492187 v 74.8125 h -60.492187 z m 0 0" fill="#f6f5f4"/>
    <path d="m 34.546875 34.167969 h 60.492187 v 72.8125 h -60.492187 z m 0 0" fill="#ffffff"/>
    <path d="m 64.792969 41.554688 c -5.496094 0 -9.953125 4.394531 -9.953125 9.816406 c 0 5.417968 4.457031 9.816406 9.953125 9.816406 c 5.496093 0 9.953125 -4.398438 9.953125 -9.816406 c 0 -5.421875 -4.457032 -9.816406 -9.953125 -9.816406 z m -4.976563 22.90625 c -8.269531 0 -14.933594 6.570312 -14.933594 14.722656 v 1.636718 c 0 3.632813 2.957032 6.546876 6.636719 6.546876 h 26.546875 c 3.679688 0 6.636719 -2.914063 6.636719 -6.546876 v -1.636718 c 0 -8.152344 -6.664063 -14.722656 -14.933594 -14.722656 z m 0 0" fill="#3f3f3f"/>
    <path d="m 58.5625 17.167969 c -2.53125 0 -4.566406 2.039062 -4.566406 4.570312 v 1.449219 c 0 -2.53125 2.035156 -4.570312 4.566406 -4.570312 h 12.460938 c 2.53125 0 4.566406 2.039062 4.566406 4.570312 v -1.449219 c 0 -2.53125 -2.035156 -4.570312 -4.566406 -4.570312 z m 0 0" fill="#33d17a"/>
    <path d="m 58.300781 13.722656 h 12.984375 c 1.332032 0 2.410156 1.074219 2.410156 2.410156 v 4.046876 h -17.804687 v -4.046876 c 0 -1.335937 1.078125 -2.410156 2.410156 -2.410156 z m 0 0" fill="url(#b)"/>
    <path d="m 73.695312 4.769531 v 11.332031 c 0 0.882813 -0.710937 1.589844 -1.59375 1.589844 h -14.617187 c -0.882813 0 -1.59375 -0.707031 -1.59375 -1.589844 v -11.332031 z m 0 0" fill="#ffffff" fill-opacity="0.705882"/>
    <path d="m 54.148438 94.191406 h 0.859375 l 0.09375 1.15625 c 0.164062 -0.414063 0.410156 -0.734375 0.734375 -0.953125 c 0.332031 -0.226563 0.726562 -0.34375 1.1875 -0.34375 c 0.476562 0 0.894531 0.125 1.25 0.375 v 0.984375 c -0.375 -0.3125 -0.820313 -0.46875 -1.328125 -0.46875 c -0.59375 0 -1.054688 0.195312 -1.375 0.578125 c -0.3125 0.375 -0.46875 0.914062 -0.46875 1.609375 v 2.90625 h -0.953125 z m 6.84375 0 h 0.953125 l 1.015625 4.71875 l 0.828125 -3 h 0.8125 l 0.84375 3 l 1.03125 -4.71875 h 0.9375 l -1.359375 5.84375 h -0.921875 l -0.9375 -3.203125 l -0.921875 3.203125 h -0.921875 z m 11.109375 2.796875 l -2.09375 -2.796875 h 1.0625 l 1.546875 2.125 l 1.546875 -2.125 h 1.078125 l -2.09375 2.796875 l 2.296875 3.046875 h -1.109375 l -1.71875 -2.34375 l -1.703125 2.34375 h -1.109375 z m -19.53125 -6.855469" fill="#3f3f3f" stroke="#3f3f3f"/>
</svg>
