<?xml version="1.0" encoding="UTF-8"?>
<svg height="16px" viewBox="0 0 16 16" width="16px" xmlns="http://www.w3.org/2000/svg">
    <path d="m 3.949219 0.683594 c -0.433594 0 -0.816407 0.277344 -0.949219 0.683594 l -3 9 c -0.0859375 0.253906 -0.0664062 0.527343 0.0507812 0.765624 c 0.1210938 0.238282 0.3281248 0.417969 0.5820308 0.5 c 0.25 0.085938 0.523438 0.066407 0.761719 -0.054687 c 0.238281 -0.117187 0.417969 -0.324219 0.503907 -0.578125 l 2.050781 -6.152344 l 2.050781 6.152344 c 0.082031 0.253906 0.261719 0.460938 0.5 0.578125 c 0.238281 0.121094 0.511719 0.140625 0.765625 0.054687 c 0.25 -0.082031 0.457031 -0.261718 0.578125 -0.5 c 0.117188 -0.238281 0.136719 -0.511718 0.054688 -0.765624 l -3 -9 c -0.136719 -0.40625 -0.519532 -0.683594 -0.949219 -0.683594 z m 0 0"/>
    <path d="m 10.960938 3.699219 c -0.554688 0 -1 0.449219 -1 1 c 0 0.554687 0.445312 1 1 1 h 2.988281 v 0.984375 h -2.664063 c -1.273437 0 -2.324218 1.054687 -2.324218 2.328125 v 0.671875 c 0 1.09375 0.90625 2 2 2 h 2.988281 c 1.089843 0 2 -0.90625 2 -2 v -3.984375 c 0 -1.089844 -0.910157 -2 -2 -2 z m 0.324218 4.984375 h 2.664063 v 1 h -2.988281 v -0.671875 c 0 -0.191407 0.132812 -0.328125 0.324218 -0.328125 z m 0 0"/>
    <path d="m 0.949219 13.964844 h 14 c 0.550781 0 1 0.238281 1 0.535156 s -0.449219 0.539062 -1 0.539062 h -14 c -0.554688 0 -1.0000002 -0.242187 -1.0000002 -0.539062 s 0.4453122 -0.535156 1.0000002 -0.535156 z m 0 0"/>
    <path d="m 0.949219 13.316406 h 8 c 0.550781 0 1 0.53125 1 1.183594 c 0 0.65625 -0.449219 1.183594 -1 1.183594 h -8 c -0.554688 0 -1.0000002 -0.527344 -1.0000002 -1.183594 c 0 -0.652344 0.4453122 -1.183594 1.0000002 -1.183594 z m 0 0"/>
    <path d="m 1.695312 8.683594 h 4 v 1 h -4 z m 0 0"/>
</svg>
